<?xml version="1.0" encoding="UTF-8"?>
<!DOCTYPE svg PUBLIC "-//W3C//DTD SVG 1.1//EN" "http://www.w3.org/Graphics/SVG/1.1/DTD/svg11.dtd">
<!-- Creator: CorelDRAW X8 -->
<svg xmlns="http://www.w3.org/2000/svg" xml:space="preserve" width="284.677mm" height="106.262mm" version="1.1" style="shape-rendering:geometricPrecision; text-rendering:geometricPrecision; image-rendering:optimizeQuality; fill-rule:evenodd; clip-rule:evenodd"
viewBox="0 0 22281 8317"
 xmlns:xlink="http://www.w3.org/1999/xlink">
 <defs>
  <style type="text/css">
   <![CDATA[
    .fil0 {fill:black}
   ]]>
  </style>
 </defs>
 <g id="Layer_x0020_1">
  <metadata id="CorelCorpID_0Corel-Layer"/>
  <path class="fil0" d="M10765 897c11,-1 49,-30 75,-24 10,2 20,-3 29,-8 11,-9 26,-2 38,-9 16,-8 100,-41 110,-47 43,-24 86,-47 130,-69 -9,19 -24,35 -29,55 8,0 17,1 24,-4 9,-5 15,-17 26,-15 52,9 39,8 131,50 74,36 201,11 205,11 17,-1 36,4 52,-6 9,-4 23,3 27,-9 13,0 26,0 37,-7 35,-11 89,44 105,51 36,7 70,23 106,31 1,-1 4,-5 6,-7 -9,-2 -17,-3 -26,-4 9,-4 19,-6 29,-8 -3,-3 -7,-6 -10,-9 -7,-20 -23,-34 -39,-46 -5,0 -52,-23 -56,-25 0,-7 1,-14 1,-21 10,-1 19,-4 29,-7 16,-5 76,-1 97,-14 28,-16 64,-14 90,-34 -137,-7 -177,-18 -215,-25 -1,-2 -3,-4 -4,-6 -23,1 -49,-11 -60,-32 1,-33 13,13 2,-110 8,-30 41,-100 46,-107 5,-22 87,-115 90,-123 13,-1 23,-12 18,-25 49,-20 185,-152 229,-182 -1,-3 -2,-7 -3,-10 10,-7 20,-15 29,-22 -2,-3 -4,-6 -6,-9 10,-5 21,-10 28,-20 -8,1 -17,3 -25,4 10,-10 23,-14 33,-24 -19,0 -34,15 -52,16 1,-2 2,-5 3,-6 13,-10 28,-18 37,-33 -22,5 -40,21 -61,30 2,-15 19,-23 18,-38 -15,1 -23,16 -33,26 -150,136 -374,227 -381,227 -8,13 -91,54 -102,53 -6,14 -21,18 -32,26 -145,103 -25,40 -140,257 -18,11 -38,23 -60,24 -20,0 -91,39 -142,34 -5,0 -124,24 -127,25 -31,16 -66,19 -98,32 -18,8 -31,25 -51,26 -3,15 -18,21 -27,31 -17,16 -32,34 -43,54 -13,15 -19,35 -33,49 -11,1 -24,-3 -35,2 -6,10 -1,27 10,31z"/>
  <path class="fil0" d="M7138 4216c69,-92 79,-104 85,-131 1,-12 14,-17 20,-26 31,-50 9,-45 32,-69 14,-10 14,-28 21,-42 -2,-19 22,-12 37,-50 16,-46 196,-293 413,-419 13,-2 25,-6 37,-9 66,13 93,57 148,40 23,-23 14,-36 24,-49 11,-16 11,-36 12,-54 7,-16 16,-30 24,-45 30,-25 34,-41 45,-81 -2,-27 -71,-13 -168,-12 -12,1 -18,-10 -26,-16 -18,-12 -36,-24 -58,-27 -14,-135 -12,-2 -12,-388 -1,-4 28,-116 33,-121 12,-13 23,-29 21,-48 43,-43 32,-47 49,-74 6,-11 19,-17 21,-29 34,-75 57,-155 62,-170 4,-9 -3,-18 -1,-27 5,-16 16,-30 19,-46 -23,-28 21,-39 8,-64 -6,4 -11,9 -16,13 -5,-22 20,-38 16,-60 -13,7 -18,20 -22,34 -9,-19 -7,-40 -6,-60 -14,4 -10,24 -12,35l-3 0c0,-6 0,-13 0,-20 -10,3 -17,11 -23,18 -1,-7 -1,-15 -1,-22 -16,6 -9,27 -11,40 -4,-2 -8,-4 -12,-6 -18,28 -29,59 -47,87 1,1 4,5 5,6 -59,73 -368,430 -327,560 1,4 60,258 26,315 -21,10 -47,6 -67,18 -69,40 56,102 -24,203 -16,18 -198,177 -202,180 -76,75 -54,20 -184,340 -207,560 -46,139 -138,343 -12,12 -27,20 -36,34 5,-1 10,-2 16,-4 2,5 5,10 6,15 -1,7 -8,9 -13,14 -9,6 -16,15 -21,25 3,0 9,0 12,0 38,-40 26,-27 56,-30 -23,21 -20,9 -27,43 25,-6 24,-39 45,-51 0,11 0,22 0,33 24,-11 30,-42 45,-62 1,8 0,16 3,23 10,9 42,-46 48,-56 4,4 9,8 13,12 13,-21 30,-38 39,-61 5,-1 10,-2 16,-2z"/>
  <path class="fil0" d="M4929 4753c6,3 11,8 18,9 21,-11 26,-36 24,-58 9,5 20,22 29,9 12,-16 23,-36 21,-57 9,6 25,14 32,1 9,-18 22,-36 22,-58 8,-1 19,2 24,-8 7,-19 26,-34 22,-57 16,-11 24,-28 30,-44 3,-14 -2,-29 4,-42 6,-17 18,-35 7,-52 -11,-15 -2,-32 -1,-48 -1,-11 -10,-20 -10,-31 -2,-17 5,-33 17,-45 13,-15 17,-34 26,-51 59,-128 159,-207 162,-211 40,7 80,7 119,7 17,-3 28,12 43,15 55,8 109,88 187,84 31,-25 34,-47 43,-65 0,-15 1,-31 12,-42 12,-9 16,-26 30,-32 1,-5 1,-9 2,-14 4,0 8,-1 13,-1 1,-7 0,-14 3,-21 3,-3 38,-35 29,-57 -36,-28 -131,-26 -178,-35 -17,0 -31,-9 -47,-11 -4,-7 -14,-6 -21,-7 -2,-4 -4,-9 -6,-13 -5,-1 -11,-2 -16,-2 -6,-7 -14,-13 -21,-19 -25,-107 91,-258 95,-260 23,-31 40,-67 71,-91 8,-5 11,-15 13,-25 43,-39 37,-6 86,-42 20,-9 44,-10 62,-26 13,-11 27,-20 44,-26 19,-6 30,-24 45,-36 0,-4 -1,-9 -2,-13 26,-7 40,-29 58,-47 -3,-3 -7,-6 -10,-10 21,-8 34,-27 51,-40 -5,-9 -16,-8 -24,-9 19,-10 35,-24 48,-41 -3,-4 -6,-7 -9,-11 13,-7 26,-16 29,-32 -12,0 -23,1 -35,4 3,-13 16,-21 15,-35 -18,-2 -31,10 -47,12 2,-16 12,-30 12,-47 -9,1 -16,4 -23,9 2,2 4,4 6,7 -15,13 -40,11 -54,-2 -17,1 -67,47 -80,56 -14,12 -322,147 -343,158 -318,143 -219,138 -257,313 -1,32 -39,90 -66,122 -18,22 -58,1 -74,12 -5,3 -122,20 -124,64 -5,15 17,27 7,41 -9,15 -28,25 -26,45 15,-3 30,-8 43,-15 19,11 37,24 55,36 -7,28 -70,81 -90,98 -190,152 -159,95 -210,260 -29,116 -12,446 -12,450 2,20 3,41 3,62 10,-2 21,-6 31,-10 8,23 -4,48 21,39 13,-4 15,-20 28,-24 3,10 8,20 14,29 14,2 23,-10 30,-19z"/>
  <path class="fil0" d="M19922 6721c0,4 39,63 41,66 8,13 23,22 39,18 11,-7 19,-19 24,-31 0,-12 -3,-25 -4,-37 5,-1 10,-1 15,-1 5,-12 8,-25 13,-37 8,-8 18,-13 24,-23 8,-3 16,-7 24,-11 17,-47 -10,-64 26,-77 2,-4 30,-123 44,-131 3,-52 23,-48 15,-74 -17,-26 -129,36 -244,32 -13,-122 33,-113 58,-197 9,-29 84,-115 97,-130 19,-27 47,-46 68,-71 22,-25 57,-26 85,-43 16,-9 36,-12 53,-19 19,-7 34,-19 53,-24 0,0 150,-58 150,-58 4,-2 54,-40 96,-43 1,-2 1,-8 1,-10 12,-4 24,-6 35,-12 5,-5 8,-12 12,-18 -10,-1 -20,-7 -30,-4 -236,69 -440,89 -622,149 -167,53 -151,65 -184,162 -49,113 -59,137 -74,136 1,3 2,6 3,9 -10,4 -20,11 -27,19 -11,-1 -20,-7 -24,-18 -14,0 -27,-1 -41,-2 -114,8 -105,64 -101,68 3,6 10,11 11,18 -7,10 -16,18 -23,28 8,13 23,3 35,3 31,43 -17,93 -57,127 -254,201 -230,76 -276,324 -2,45 -6,172 2,213 4,94 38,339 44,355 16,0 20,-18 26,-29 12,15 18,35 29,26 5,-9 7,-19 10,-28 8,4 17,7 26,6 2,-19 3,-40 -6,-58 9,2 17,6 26,10 17,-14 15,-39 15,-58 7,1 19,7 22,-3 11,-16 10,-36 15,-55 4,-1 9,-3 14,-4 35,-113 21,-48 41,-110 3,-12 -2,-26 5,-37 26,-51 9,-38 18,-63 18,-50 3,-57 5,-88 0,-12 -12,-24 -6,-36 34,-69 200,-279 262,-266 24,7 52,11 70,31 13,51 63,83 67,106z"/>
  <path class="fil0" d="M4865 3562c1,-2 2,-5 3,-7 34,1 66,-11 99,-19 40,1 80,-3 120,-9 -1,-8 -2,-16 -5,-24 -34,3 -66,18 -100,17 -149,11 -700,-35 -666,-35 -161,-2 -152,28 -340,61 -36,4 -84,3 -90,15 -15,1 -29,9 -44,9 -31,2 -74,24 -69,68 2,11 22,17 12,29 -9,13 -19,27 -17,44 -478,414 -342,801 -588,874 -4,6 4,10 9,7 25,-3 47,-17 67,-32 -9,15 -22,26 -28,42 30,-19 61,-47 62,-48 -4,13 -9,25 -15,37 15,5 4,11 54,-51 0,8 1,16 2,25 18,-10 30,-27 41,-44 0,0 33,-13 63,-60 48,-38 18,-23 94,-83 14,-13 25,-30 35,-46 10,-11 25,-16 33,-29 50,-62 50,-72 59,-91 8,-9 19,-17 24,-30 9,-23 32,-37 38,-62 24,-3 57,-70 59,-76 11,-36 108,-139 119,-154 1,-2 39,-47 67,-73 4,0 78,12 86,16 17,21 41,92 55,103 22,17 89,-38 121,-49 32,-11 22,-37 68,-25 2,-5 3,-9 5,-13 15,-6 16,-24 29,-33 3,-3 83,-63 102,-71 11,-5 19,-15 20,-28 -5,-7 -12,-17 -22,-16 -7,-1 -113,4 -117,-15 -19,-1 -39,0 -58,-1 -1,-2 -3,-5 -4,-6 -13,-2 -27,-1 -40,-2 0,-4 1,-9 1,-13 26,-7 222,-80 288,-79 12,0 23,-5 35,-1 16,5 32,-5 47,0 12,4 21,-7 33,-6 22,0 43,-5 65,-6 26,-9 184,-10 188,-10z"/>
  <path class="fil0" d="M22281 6844c-16,-1 -32,3 -48,6 9,-13 20,-27 29,-41 -22,-2 -40,14 -60,19 -1,-11 3,-21 8,-30 -16,4 -28,17 -42,27 -11,10 -27,13 -38,23 -67,66 -566,174 -648,273 -94,115 -188,226 -240,221 -20,-1 -122,14 -126,14 -32,2 -64,41 -39,70 11,14 -3,29 -7,43 4,12 20,4 29,4 -11,42 -186,114 -283,184 -79,55 -216,386 -219,394 -2,8 -47,105 -50,112 -28,81 -52,83 -91,114 19,-1 36,-10 52,-18 0,23 -27,29 -32,50 34,-3 52,-38 66,-44 -4,44 -11,18 -12,52 22,-6 35,-27 47,-45 13,8 2,26 12,35 17,-10 31,-25 42,-41 5,5 13,11 20,5 15,-9 31,-19 40,-35 6,-1 13,-1 20,-1 12,-18 32,-28 42,-48 3,-7 12,-9 17,-13 10,-8 19,-18 27,-27 10,-11 11,-29 25,-36 18,-14 39,-32 41,-56 51,-36 45,-54 46,-81 11,-6 33,-52 53,-55 15,-3 25,-17 32,-29 6,-9 17,-12 25,-18 8,-6 10,-16 15,-24 7,-7 15,-13 22,-20 5,-7 10,-16 19,-20 29,-14 159,-147 230,-170 147,16 159,53 194,83 76,94 95,40 119,29 10,-9 25,-13 32,-26 2,-1 6,-2 8,-2 15,-39 23,-55 58,-63 11,-12 70,-59 72,-86 -54,-25 -162,-34 -226,-65 -13,0 -25,-4 -37,-11 -1,-17 2,-39 21,-46 12,-46 132,-139 135,-143 15,-10 25,-27 44,-33 13,-4 15,-22 31,-23 14,-1 22,-13 32,-21 70,-28 1,-9 70,-38 9,-4 7,-14 6,-21 10,-6 20,-10 28,-18 11,-15 33,-14 46,-28 17,-18 68,1 104,-50 46,-4 67,-42 77,-46 21,-7 44,-18 52,-40 18,-7 32,-18 47,-28 -1,-5 -2,-9 -3,-14 13,-6 25,-16 38,-24 0,-2 -1,-7 -1,-9 -4,-1 -9,-3 -12,-4 14,-5 27,-15 39,-25 -19,-12 -20,-1 -51,-2 -9,-10 34,-15 53,-40z"/>
  <path class="fil0" d="M13656 2947c-1,-8 -2,-15 -2,-22 -7,0 -12,0 -18,0 -5,5 -9,12 -17,12 -6,1 -6,-7 -8,-11 3,-1 8,-2 11,-3 0,-8 -1,-15 -3,-23 -9,13 -16,31 -34,34 0,4 -1,8 -2,12 -17,18 -58,82 -71,92 -40,31 -123,123 -151,145 -9,7 -115,106 -217,245 -46,65 -25,63 -55,226 -2,20 -11,39 -10,59 3,-4 6,-8 9,-11 0,0 -20,81 -25,115 -21,7 -34,29 -56,33 -31,6 -62,6 -93,11 -88,9 -87,77 -94,88 -38,45 -219,41 -276,62 -56,15 -184,110 -189,112 -10,10 -151,137 -186,157 -10,5 -22,6 -32,12 15,10 31,0 46,-4 -7,9 -13,18 -18,29 21,3 38,-11 55,-20 2,7 -3,21 8,23 14,-6 26,-16 40,-23 9,9 6,23 54,-14 8,-2 16,4 24,1 0,0 230,-77 232,-77 27,-7 55,-17 77,-35 13,-8 35,-9 36,-29 59,-23 254,-76 257,-78 47,21 91,52 142,64 68,20 136,-12 166,3 15,5 27,18 43,18 26,-1 33,31 56,37 14,11 29,-2 43,-8 4,-16 25,-21 26,-39 10,-2 19,-5 28,-7 5,-11 7,-23 10,-35 70,-112 25,-57 60,-103 1,-7 0,-14 1,-21 -19,-6 -193,-8 -201,-16 -16,-11 -34,-21 -52,-28 13,-49 0,-53 8,-78 4,-10 -3,-19 -1,-28 22,-59 45,-152 55,-169 5,-8 5,-18 8,-27 29,-52 57,-104 92,-216 67,-36 40,-63 68,-79 28,-19 79,-136 95,-152 17,-20 13,-35 49,-104 4,-7 -4,-17 3,-24 8,-10 14,-21 19,-33 3,-6 -3,-9 -7,-13 11,-11 24,-23 27,-39 -6,0 -12,1 -17,2 7,-12 16,-23 19,-37 -14,-3 -17,19 -32,14z"/>
  <path class="fil0" d="M14294 4641c4,-3 49,-37 64,-60 11,-10 25,-17 30,-32 7,-21 31,-29 39,-50 102,-111 169,-190 172,-194 0,0 117,12 117,12 14,10 18,29 27,42 21,29 25,87 69,80 135,-33 49,-13 101,-19 4,-2 54,-29 73,-28 8,-8 17,-17 25,-26 8,0 17,1 25,-1 32,-19 64,-41 91,-68 -23,-26 -53,-18 -88,-33 -18,-20 -150,-52 -163,-80 -20,-6 -33,-25 -52,-34 7,-11 11,-22 21,-30 137,-92 281,-131 288,-132 8,0 145,-60 148,-63 2,-1 54,-9 75,-26 19,-11 44,-12 61,-27 4,-2 145,-56 162,-73 9,-8 22,-8 33,-12 -6,-8 -17,-6 -26,-8 14,-5 29,-6 43,-11 1,-2 2,-6 3,-7 -27,2 -54,6 -80,12 16,-17 72,-22 77,-39 -23,3 -43,13 -65,16 2,-6 5,-12 9,-17 -14,-1 -26,9 -38,14 -184,64 -47,19 -283,64 -234,23 -397,29 -555,157 -191,132 -156,48 -299,102 -13,5 -58,30 -16,80 -7,16 -20,32 -11,50 11,-7 20,-19 35,-20 -40,54 -247,167 -302,286 -57,109 -153,467 -154,470 -2,1 -7,2 -9,2 -9,93 -36,79 -57,134 18,-2 26,-20 40,-29 -3,18 -10,34 -13,52 28,-8 32,-60 48,-68 -3,17 -6,35 0,53 21,-15 18,-57 33,-61 0,6 1,13 1,19 3,-1 7,-2 10,-3 12,-14 13,-41 34,-47 4,-6 35,-50 42,-55 12,-8 17,-23 26,-35 7,-8 12,-19 18,-27 24,-18 169,-201 171,-230z"/>
  <path class="fil0" d="M10392 6131c122,-5 136,-22 163,20 25,18 58,21 81,42 19,16 43,21 63,33 14,8 30,5 45,4 22,-58 20,-60 48,-84 12,-1 23,3 34,5 0,-4 0,-10 0,-13 -5,0 -10,0 -15,0 -4,-18 2,-35 5,-52 17,-16 27,-40 18,-63 13,-4 24,-12 37,-17 16,-28 37,-69 12,-83 -53,-2 -286,16 -318,3 -14,-103 8,-116 18,-154 5,-17 87,-183 93,-193 11,-10 16,-25 21,-40 18,-29 16,-14 18,-50 3,-3 7,-5 10,-7 4,-60 38,-29 44,-79 -1,-14 59,-29 50,-80 22,-10 40,-28 52,-49 2,-9 0,-19 3,-27 19,-18 49,-50 30,-67 14,-12 22,-29 27,-46 -6,-3 -12,-5 -18,-8 17,-10 23,-28 29,-44 -9,-4 -19,-4 -29,-4 7,-14 22,-25 22,-42 -19,0 -34,11 -52,15 10,-19 33,-30 33,-54 -20,1 -43,20 -46,24 -5,-1 -13,1 -15,-5 -1,-21 22,-35 17,-58 -17,3 -30,16 -37,31 -10,11 -20,22 -33,30 -4,-14 5,-31 -6,-42 -8,-16 -28,21 -31,33 -3,18 -20,29 -30,43 -14,17 -22,39 -42,50 -7,5 -276,250 -314,295 -178,176 -84,129 -115,329 -32,114 -36,100 -63,121 -15,12 -34,-1 -50,4 -23,5 -48,6 -70,15 -62,30 -16,73 -24,88 -5,9 -11,18 -10,29 10,0 20,-1 30,1 9,6 45,30 39,44 -193,229 -219,202 -247,293 -26,114 -36,253 -33,329 0,33 2,97 9,129 12,127 29,118 52,94 11,15 18,44 30,26 13,-10 15,-29 24,-41 8,9 13,23 27,23 17,-7 18,-27 21,-43 8,4 46,41 45,-55 9,5 17,9 26,13 29,-15 24,-62 28,-65 5,1 10,2 15,4 24,-18 33,-48 33,-64 5,-2 10,-3 14,-5 20,-9 27,-65 39,-78 24,-28 20,-43 15,-64 36,-28 18,-49 15,-63 8,-14 17,-10 10,-45 11,-15 22,-32 32,-48 11,-17 34,-97 48,-114 1,-1 73,-124 73,-124z"/>
  <path class="fil0" d="M7668 5876c-203,-23 -667,-266 -755,-237 -30,3 -58,56 -86,76 -66,57 -48,34 -191,76 -16,5 -151,2 -173,66 0,14 7,28 16,38 -50,54 -159,47 -247,85 -41,18 -53,83 -65,131 -38,131 127,403 128,407 2,0 6,1 8,2 6,13 17,23 23,36 2,1 6,2 8,2 4,19 18,34 30,49 9,10 19,-7 30,-4 23,-3 18,38 55,5 9,0 18,1 26,-3 7,-37 1,-143 1,-143 5,-19 9,-39 2,-58 -8,-18 3,-36 0,-55 0,-13 -14,-24 -10,-38 4,-19 -1,-39 -11,-55 10,-40 1,-27 -2,-57 50,-84 39,-88 143,-150 10,-4 19,-10 30,-11 137,46 132,10 219,19 26,11 49,32 78,35 25,7 52,-2 76,8 37,10 129,-9 138,-31 -12,-10 -51,-34 -94,-44 1,-1 3,-5 3,-6 -14,-5 -25,-16 -40,-18 -7,-11 -17,-19 -25,-30 -14,-10 -24,-25 -34,-39 -3,-7 -3,-15 -7,-23 14,-11 133,-136 229,-99 244,96 396,97 475,100 15,-2 31,3 44,-6 -10,-8 -27,-12 -22,-28z"/>
  <path class="fil0" d="M10938 102c-2,0 -7,1 -10,1 4,43 -77,94 -111,104 -19,7 -38,0 -56,-3 -15,-2 -21,-22 -37,-19 -40,2 -125,18 -128,57 -2,14 9,24 13,37 -7,14 -23,23 -21,40 11,-2 22,-9 34,-9 10,7 18,18 25,28 -19,41 -78,54 -91,60 -124,51 -209,13 -111,268 21,53 130,232 217,330 6,13 15,23 28,29 26,12 36,42 64,50 6,-16 5,-32 5,-49 22,0 14,12 52,19 2,-9 13,-20 5,-29 -5,-6 -10,-10 -14,-16 0,-5 1,-11 2,-16 12,3 23,7 35,9 19,-4 11,-28 12,-41 9,-3 18,-6 26,-11 1,-11 1,-23 3,-35 26,-32 9,-28 20,-75 -1,-27 8,-53 3,-80 -14,-90 -4,-46 -31,-81 -5,-11 -6,-25 -17,-32 -15,-11 -33,-18 -42,-35 -5,-10 -13,-16 -24,-17 6,-124 200,-87 292,-32 47,25 53,-11 97,-20 -3,-14 -9,-32 4,-43 12,-11 17,-29 33,-35 19,-9 33,-27 54,-31 2,-5 4,-9 7,-14 5,0 11,0 18,0 3,-11 4,-23 3,-34 -13,0 -26,4 -38,-1 -21,-8 -163,-12 -166,-12 6,-18 12,-36 21,-53 14,-27 78,-65 86,-67 69,-24 68,-2 96,6 19,6 120,52 124,54 25,16 55,20 82,34l0 -37c-521,-332 -545,-272 -564,-199z"/>
  <path class="fil0" d="M12143 6050c-7,0 -14,-1 -20,-1 8,-6 17,-9 24,-16 1,-5 0,-11 -4,-14 -14,2 -28,5 -42,8 3,-10 7,-19 12,-27 -13,-5 -3,-11 -57,20 -16,7 -35,9 -48,21 0,0 -396,85 -576,148 -70,23 -74,200 -162,235 -7,5 -12,-6 -19,-4 -100,25 -94,26 -177,-10 -124,-45 -265,-46 -409,26 -15,9 -26,-12 -42,-10 0,2 0,6 0,8 -1,1 -5,3 -6,4 3,6 5,11 10,16 7,1 67,0 86,13 18,13 159,25 171,33 113,5 130,3 147,-26 10,0 21,-2 31,-5 -27,45 3,34 -1,58 -3,12 -16,16 -23,25 -1,5 -2,13 4,16 13,-1 22,-11 34,-14 109,74 123,115 212,116 0,0 83,9 83,9 60,9 109,-18 125,-17 13,-1 26,5 40,2 15,-2 29,-10 45,-10 14,1 23,-10 36,-14 7,-2 120,-9 92,-29 -27,-15 -59,-11 -89,-10 1,-2 3,-7 4,-9 -57,-17 -108,-25 -118,-64 14,-26 -6,-13 49,-96 5,-1 9,-1 13,-1 0,-13 6,-24 17,-31 35,-57 129,-122 151,-130 11,-1 23,-1 34,-4 4,-1 158,-42 221,-83 21,-9 44,-13 59,-30 -1,-3 -2,-6 -3,-10 15,-4 30,-10 42,-21 -1,-4 -2,-9 -4,-13 15,-2 30,-7 40,-19 -5,-3 -10,-7 -14,-12 15,-2 29,-7 40,-17 -2,-4 -5,-7 -8,-11z"/>
  <path class="fil0" d="M7923 221c-21,0 -41,13 -63,8 6,-10 20,-11 22,-23 -38,6 -16,18 -76,20 0,-12 5,-23 12,-32 -19,-2 -25,22 -41,28 -12,4 -22,11 -29,21 -21,-2 -39,12 -59,15 -137,26 -422,13 -571,53 -58,24 -113,147 -235,159 -7,-2 -11,-6 -16,-10 -52,11 -167,8 -111,101 -7,11 -13,22 -13,35 11,1 28,-10 35,3 3,6 10,11 5,17 -28,45 -132,131 -144,140 -64,56 -68,45 -94,149 -29,116 -21,333 -28,384 0,1 3,23 -14,167 -13,11 -1,32 -9,46 -6,10 -16,18 -17,30 31,-19 24,-31 40,-32 1,16 2,31 6,46 -5,6 -8,13 -6,21 21,-5 17,-33 32,-44 2,8 6,15 11,21 -5,25 20,38 22,-40 2,0 6,0 8,0 8,9 13,21 19,32 3,0 8,-1 10,-1 8,-13 16,-26 17,-42 1,-10 -4,-23 6,-31 5,12 10,24 18,35 17,2 8,-5 29,-39 7,-10 4,-23 5,-34 3,0 8,0 10,0 3,4 7,8 10,12 31,-16 21,-29 39,-61 32,-16 51,-69 51,-82 39,-28 31,-65 33,-76 33,-61 16,-55 7,-93 4,-14 20,-27 11,-42 -4,-10 -11,-20 -5,-30 8,-16 36,-115 45,-131 7,-18 26,-30 28,-49 65,-49 80,-233 336,-60 89,60 105,-26 134,-33 18,-5 31,-18 46,-28 31,-22 31,-18 21,-47 -33,-2 -173,-63 -179,-64 -12,-16 -34,-18 -51,-26 -3,-6 -3,-12 -2,-18 -3,0 -8,-1 -11,-1 -9,-79 167,-182 242,-186 28,-3 57,-3 84,-12 13,-4 27,-6 41,-6 18,2 13,-13 54,-15 71,3 72,-14 91,-20 20,-6 41,-7 59,-19 9,-4 14,-14 25,-17 16,-4 31,-10 42,-23 9,-11 24,-13 36,-18 -1,-2 -3,-5 -3,-7 -13,0 -25,0 -36,-1 17,-13 46,-1 60,-20 -9,-1 -17,-2 -25,-5 11,-1 23,-2 35,-2 0,-2 -2,-5 -2,-7 -5,-2 -9,-3 -14,-5 7,-2 14,-4 17,-11z"/>
  <path class="fil0" d="M1654 625c-4,0 -287,-3 -336,11 -40,10 -62,-2 -101,64 -14,16 -60,70 -76,82 -17,14 -30,33 -50,42 -8,4 -16,7 -18,16 -13,1 -26,5 -39,5 -14,-3 -24,-13 -38,-15 -18,-3 -93,1 -100,38 -1,16 23,68 17,94 -10,18 -27,31 -42,43 -255,172 -266,37 -296,641 -6,45 -15,207 -15,210 6,1 11,1 17,2 4,5 4,16 12,14 11,-14 10,-31 14,-48 2,0 7,0 9,0 1,6 1,12 2,18 5,1 11,7 15,1 10,-12 7,-28 8,-42 12,3 17,17 29,19 7,-15 10,-32 19,-45 20,-12 24,-38 36,-56 25,-17 20,-54 44,-73 10,-16 37,-135 44,-156 5,-17 -2,-36 4,-53 5,-17 7,-35 3,-52 -6,-19 102,-151 160,-186 72,-44 112,-128 246,-4 8,8 10,22 23,25 0,4 1,8 1,12 11,5 20,13 24,25 20,-3 53,-25 61,-42 1,0 4,1 6,1 1,-7 3,-14 5,-21 8,0 17,0 25,0 -2,-10 1,-20 3,-30 88,-50 76,-41 87,-70 -10,-8 -21,-12 -31,-19 -11,-7 -26,-1 -36,-10 -8,-7 -17,-11 -27,-11 -4,-4 -8,-9 -11,-13 -12,0 -21,-6 -28,-16 -4,0 -9,-1 -13,-1 1,-47 -14,-72 62,-158 142,-186 209,-118 414,-171 15,-4 31,0 47,-4 17,-3 33,-15 51,-13 14,0 96,-28 99,-28 8,-2 15,-3 23,-5 0,-3 -1,-7 -1,-10 13,-2 29,0 38,-11 -9,0 -18,0 -27,-1l-1 -3c13,0 28,0 36,-11 0,0 -245,20 -398,15z"/>
  <path class="fil0" d="M7404 1336c-8,3 -15,6 -23,8 0,-3 0,-8 1,-11 3,-2 6,-4 9,-6 1,-10 6,-17 13,-24 -11,-6 -26,4 -27,16 -8,2 -16,4 -24,5 1,-6 2,-11 3,-16 4,-2 9,-2 13,-5 -1,-3 -3,-6 -5,-8 2,-5 4,-11 6,-15 -18,-1 -20,20 -49,46 -4,1 -8,7 -12,3 -3,-12 -3,-26 -13,-35 -10,5 -7,18 -11,27 -3,14 -18,21 -23,34 -5,14 -13,26 -19,39 -173,185 -265,244 -337,318 -141,167 -57,151 -126,330 -10,21 -13,47 -34,61 -33,42 -120,6 -186,73 0,6 0,12 0,18 -158,37 -212,15 -388,156 -137,121 -121,80 -167,83 0,3 0,9 0,12 31,10 66,5 95,-9 -1,6 -2,11 -3,17 12,-1 24,-3 34,-9 12,-5 318,-75 360,-73 23,1 42,-15 65,-16 0,-5 0,-10 0,-14 34,-9 68,-11 101,-23 29,-24 49,-4 94,4 149,28 102,7 182,5 18,-8 37,-6 57,-6 -10,-12 12,-8 19,-8 0,-2 0,-6 -1,-8 13,5 26,8 39,11 18,11 40,15 60,22 -2,2 -6,4 -9,6 28,6 55,19 84,14 2,-4 4,-8 6,-12 30,-7 70,-50 84,-71 12,-13 18,-30 34,-38 7,-3 21,-27 -52,-29 -18,-1 -36,0 -51,-9 -26,2 -50,-8 -76,-9 -3,-4 -7,-7 -10,-11 -20,-2 -43,-2 -58,-17 -21,-18 -22,-51 -12,-74 14,-31 14,-53 66,-138 12,-20 20,-42 30,-62 84,-111 58,-110 77,-143 13,-12 35,-12 44,-29 4,-7 5,-15 9,-22 10,-24 55,-29 55,-84 40,-39 24,-52 42,-81 11,-17 18,-38 12,-58 11,-16 14,-35 15,-54 -1,-1 -4,-3 -6,-4 5,-12 10,-23 13,-35 -1,-9 -11,-8 -17,-7 7,-9 14,-18 20,-28 -1,-2 -2,-5 -3,-7z"/>
  <path class="fil0" d="M10744 3177c-27,2 -52,14 -78,19 0,-2 2,-6 3,-9 10,-3 22,-4 28,-14 -7,2 -13,5 -20,7 -10,-2 -19,-18 -30,-10 -10,5 -22,7 -30,16 -6,8 -17,8 -27,10 1,2 1,6 1,8 -238,113 -473,36 -798,252 -90,59 -148,-22 -231,8 -14,3 -28,12 -31,27 -6,16 5,30 10,44 -25,8 -207,-2 -373,55 -290,121 -350,207 -494,192 0,1 2,4 2,6 20,4 40,11 60,5 -3,4 -6,8 -9,12 19,0 37,-8 55,-12 -1,2 -3,7 -4,9 55,-14 60,-22 63,-9 20,-5 40,-11 60,-15 3,2 6,4 10,7 28,-5 58,-16 87,-7 22,-2 44,-4 66,-9 11,1 22,6 34,5 21,2 40,-11 61,-7 50,9 58,-19 77,-16 14,1 29,-1 37,-15 22,-2 45,1 67,-1 4,-1 196,-59 247,-47 41,-22 6,12 207,102 30,17 45,51 72,72 10,3 227,-18 210,-52 -16,-14 -34,-25 -54,-32 -104,-97 -111,-98 -103,-134 4,-23 69,-53 75,-57 20,-3 33,-20 53,-23 42,-24 106,-55 153,-67 13,-9 28,-12 44,-14 22,-13 50,-16 69,-35 19,-18 38,-3 64,-20 19,-14 44,-13 66,-20 16,-3 25,-18 39,-25 15,-6 31,-10 46,-16 9,-6 10,-18 17,-26 79,-27 65,-36 66,-48 17,-7 34,-15 50,-24 1,-6 3,-12 5,-18 14,-3 28,-7 36,-20 -7,0 -13,-1 -19,-1 12,-9 29,-9 38,-22 -19,-4 -37,7 -56,7 17,-19 40,-11 79,-38z"/>
  <path class="fil0" d="M1241 2190c-14,0 -26,-9 -41,-10 -26,-14 -182,-67 -217,-79 -186,-75 -285,-76 -296,-78 -116,4 -78,16 -105,62 -51,90 -139,118 -170,98 12,-1 23,-6 31,-16 -99,8 -199,5 -196,76 -57,22 -304,-41 -235,262 11,87 100,281 136,254 -1,-11 -1,-21 -1,-32 50,43 29,34 50,20 -4,-13 -8,-26 -11,-38 16,12 34,34 57,27 -3,-13 -6,-26 -11,-39 45,27 39,-8 43,-22 4,-1 9,-1 14,-1 6,-10 10,-21 15,-31 11,-11 21,-23 24,-38 0,-17 16,-29 13,-46 -4,-18 11,-35 6,-53 -6,-15 6,-30 -3,-44 -7,-10 -1,-21 3,-30 -4,-8 -11,-19 -2,-26 51,-53 4,27 191,38 74,11 122,6 122,6 11,-36 79,48 184,51 -2,-5 -9,-9 -8,-15 0,-10 13,-8 19,-11 22,-3 31,-30 53,-32 15,-1 26,-11 39,-17 0,-4 0,-8 0,-13 -4,-1 -158,-51 -172,-69 -9,-1 -18,-1 -28,-2 -11,-17 -30,-33 11,-88 119,-111 135,-114 412,-34 33,6 65,19 100,17 20,7 42,9 63,1 -3,-17 -3,-28 -90,-48z"/>
  <path class="fil0" d="M4075 2280c-1,-16 -20,-17 -33,-18 -17,1 -33,-6 -50,-4 -45,2 -90,-3 -139,-11 -121,-8 -84,-2 -142,-4 -93,-13 -228,-5 -350,35 -39,13 -41,66 -167,211 -16,2 -189,-32 -201,35 -21,-9 -43,-17 -65,-22 -186,-34 -167,-63 -283,69 -24,27 -22,65 -34,97 -15,155 19,249 37,245 10,2 14,-11 17,-19 8,15 14,35 32,40 12,-17 7,-37 9,-56 10,11 15,25 27,35 5,1 12,1 14,-5 2,-15 0,-30 1,-46 9,11 16,26 31,28 13,0 20,-14 20,-26 17,2 32,-10 35,-26 14,-2 27,-10 31,-23 7,-23 23,-4 31,-54 17,-8 20,-26 18,-43 3,-4 7,-7 11,-10 -1,-16 0,-32 7,-46 1,-6 37,-31 81,-30 24,85 153,157 238,183 11,5 24,4 33,13 14,13 26,28 43,38 15,3 31,2 45,-7 9,2 16,9 25,13 7,-49 93,-24 127,-73 16,-3 33,-6 44,-18 1,-5 1,-12 -5,-13 -25,-9 -65,-15 -73,-24 0,0 -64,-33 -69,-34 -21,-11 -47,-24 -52,-50 -2,0 -6,-1 -8,-2 -7,-95 67,-149 90,-178 141,-123 198,-80 225,-95 15,-9 30,4 45,-1 29,-10 59,4 87,-6 21,-8 42,4 63,-2 9,-3 23,1 27,-9 32,3 61,-18 93,-17 0,-3 1,-8 2,-10 14,0 28,0 41,-5 0,-5 0,-10 1,-15 8,0 17,0 25,-1 14,-14 5,-14 32,-20 0,-5 -1,-11 -1,-16 -5,-1 -11,-2 -16,-3z"/>
  <path class="fil0" d="M3458 2721c1,13 11,-6 0,0l0 0z"/>
 </g>
</svg>
