<?xml version="1.0" encoding="UTF-8"?>
<!DOCTYPE svg PUBLIC "-//W3C//DTD SVG 1.1//EN" "http://www.w3.org/Graphics/SVG/1.1/DTD/svg11.dtd">
<!-- Creator: CorelDRAW X8 -->
<svg xmlns="http://www.w3.org/2000/svg" xml:space="preserve" width="74.0599mm" height="88.2358mm" version="1.1" style="shape-rendering:geometricPrecision; text-rendering:geometricPrecision; image-rendering:optimizeQuality; fill-rule:evenodd; clip-rule:evenodd"
viewBox="0 0 117409 139882"
 xmlns:xlink="http://www.w3.org/1999/xlink">
 <defs>
  <style type="text/css">
   <![CDATA[
    .fil0 {fill:black}
   ]]>
  </style>
 </defs>
 <g id="Layer_x0020_1">
  <metadata id="CorelCorpID_0Corel-Layer"/>
  <path class="fil0" d="M18831 18165c216,-10 997,-596 1513,-485 214,46 419,-51 594,-164 223,-171 530,-28 765,-175 328,-164 2028,-827 2237,-956 862,-488 1732,-960 2622,-1395 -168,385 -476,698 -587,1111 165,-3 351,27 491,-84 180,-96 300,-349 531,-306 1059,194 794,178 2654,1017 1492,728 4064,218 4143,223 354,-26 743,92 1061,-114 171,-96 460,46 541,-186 263,8 527,-11 759,-147 693,-219 1789,898 2121,1040 735,144 1421,454 2146,633 29,-35 87,-108 116,-143 -169,-54 -344,-74 -517,-97 188,-70 386,-112 584,-144 -71,-62 -141,-123 -211,-182 -128,-408 -459,-690 -789,-937 -98,-9 -1038,-476 -1126,-518 5,-139 15,-277 28,-415 192,-30 383,-76 569,-137 328,-108 1540,-37 1967,-299 576,-322 1309,-278 1838,-685 -2791,-139 -3595,-358 -4362,-504 -20,-29 -59,-88 -78,-117 -478,27 -995,-218 -1211,-654 17,-672 251,271 29,-2232 163,-592 832,-2009 942,-2164 93,-451 1756,-2319 1810,-2487 260,-12 464,-238 380,-500 991,-403 3744,-3090 4628,-3689 -23,-69 -45,-138 -66,-206 207,-140 402,-297 603,-444 -45,-64 -89,-127 -132,-190 211,-102 436,-203 572,-407 -171,26 -340,64 -510,85 198,-190 473,-275 665,-475 -382,1 -677,295 -1052,315 13,-31 41,-91 54,-122 268,-204 580,-370 759,-669 -451,99 -806,434 -1232,604 43,-299 371,-456 368,-764 -316,26 -473,326 -683,520 -3033,2771 -7562,4615 -7713,4600 -154,267 -1833,1099 -2056,1085 -120,279 -428,355 -657,517 -2932,2081 -496,819 -2829,5202 -369,236 -771,464 -1218,491 -410,-5 -1853,795 -2886,697 -88,-6 -2502,472 -2561,507 -627,323 -1350,369 -1994,647 -356,151 -626,490 -1030,528 -54,300 -361,420 -551,623 -329,330 -637,684 -861,1095 -264,302 -386,697 -664,986 -236,17 -501,-52 -717,53 -116,192 -11,530 203,614z"/>
  <path class="fil0" d="M77393 59687c-19,-148 -38,-297 -55,-444 -123,0 -243,3 -364,7 -98,92 -181,242 -334,231 -128,30 -125,-141 -161,-214 55,-16 167,-49 222,-66 -4,-154 -20,-308 -57,-456 -198,257 -333,620 -690,691 -14,78 -29,157 -42,236 -357,364 -1171,1669 -1443,1857 -799,627 -2487,2491 -3064,2944 -175,146 -2322,2140 -4393,4967 -921,1313 -504,1262 -1119,4577 -38,399 -206,776 -187,1182 58,-76 119,-151 180,-225 -1,18 -412,1648 -517,2331 -421,159 -680,590 -1133,680 -621,117 -1257,110 -1880,216 -1773,192 -1762,1554 -1895,1778 -780,915 -4452,838 -5604,1260 -1120,299 -3718,2227 -3822,2264 -194,210 -3056,2777 -3762,3189 -211,93 -450,115 -644,247 292,197 622,-6 920,-77 -133,181 -269,362 -355,571 422,66 769,-214 1114,-406 27,154 -64,436 158,472 287,-120 532,-319 811,-456 169,179 116,464 1098,-300 159,-35 321,87 482,26 2,0 4656,-1547 4696,-1557 551,-146 1113,-335 1555,-708 263,-172 719,-180 738,-578 1191,-473 5131,-1551 5210,-1580 953,425 1833,1036 2861,1279 1378,418 2766,-239 3362,76 308,94 547,364 883,363 516,-17 658,627 1120,752 294,212 600,-44 874,-161 86,-330 513,-430 542,-797 187,-46 373,-95 561,-137 89,-236 148,-480 206,-723 1414,-2255 509,-1148 1203,-2087 35,-138 14,-281 17,-420 -373,-123 -3897,-155 -4070,-314 -325,-232 -672,-436 -1046,-580 262,-987 0,-1072 171,-1575 66,-192 -63,-382 -36,-574 461,-1194 922,-3075 1128,-3406 97,-173 100,-374 146,-560 596,-1053 1159,-2100 1868,-4380 1354,-718 820,-1269 1372,-1591 583,-395 1612,-2756 1924,-3070 352,-418 281,-722 1007,-2107 80,-153 -85,-355 56,-487 156,-203 282,-429 375,-668 80,-126 -59,-197 -136,-266 217,-237 490,-468 542,-804 -116,16 -229,36 -342,54 147,-245 321,-479 396,-758 -292,-48 -353,391 -647,282z"/>
  <path class="fil0" d="M90318 93998c78,-52 985,-742 1283,-1217 222,-189 520,-331 611,-633 136,-428 621,-602 783,-1017 2076,-2256 3427,-3853 3496,-3931 0,0 2359,239 2359,239 286,199 365,582 557,862 433,581 506,1758 1405,1604 2722,-658 991,-254 2032,-387 78,-38 1106,-572 1473,-555 173,-173 349,-342 516,-522 167,-4 338,3 506,-20 653,-401 1301,-832 1835,-1390 -453,-519 -1055,-368 -1772,-668 -365,-392 -3048,-1056 -3306,-1620 -412,-114 -676,-493 -1044,-694 127,-204 222,-441 412,-598 2785,-1859 5703,-2656 5842,-2664 153,-8 2927,-1225 3005,-1286 32,-30 1094,-191 1515,-518 389,-227 891,-242 1226,-566 78,-33 2936,-1127 3291,-1471 181,-169 447,-153 668,-234 -124,-178 -349,-130 -533,-159 282,-109 591,-128 874,-241 14,-35 42,-104 57,-139 -547,56 -1091,123 -1625,251 340,-344 1460,-455 1559,-795 -449,73 -866,271 -1314,332 36,-129 111,-240 187,-348 -290,-31 -516,187 -774,277 -3725,1306 -952,394 -5725,1293 -4738,475 -8035,606 -11250,3186 -3856,2674 -3162,971 -6057,2069 -263,91 -1168,599 -321,1621 -148,321 -406,653 -222,1016 235,-138 418,-390 709,-406 -814,1083 -4998,3371 -6105,5792 -1160,2200 -3111,9449 -3130,9527 -46,7 -139,23 -185,32 -183,1888 -724,1605 -1149,2705 369,-30 519,-406 805,-581 -58,358 -208,695 -254,1056 565,-166 641,-1223 972,-1388 -60,359 -121,724 -7,1081 428,-303 372,-1150 670,-1223 9,121 18,243 27,367 48,-12 142,-35 190,-47 258,-298 270,-834 703,-951 73,-122 695,-1019 836,-1113 255,-173 350,-479 537,-711 139,-177 231,-386 369,-563 472,-353 3423,-4064 3463,-4654z"/>
  <path class="fil0" d="M11284 124185c2454,-102 2737,-445 3293,406 504,367 1179,421 1647,848 371,316 856,432 1273,673 277,166 613,101 918,82 442,-1182 391,-1221 968,-1698 232,-37 459,59 689,83 1,-64 2,-192 3,-255 -108,-3 -215,-3 -322,-1 -74,-362 45,-703 110,-1052 348,-318 552,-813 369,-1272 260,-93 486,-255 740,-357 336,-566 759,-1384 243,-1670 -1065,-43 -5778,321 -6444,62 -275,-2082 180,-2359 373,-3126 98,-348 1770,-3709 1874,-3897 231,-218 330,-522 432,-813 358,-593 321,-294 367,-1027 68,-43 136,-86 203,-128 86,-1211 771,-594 887,-1602 -24,-280 1203,-588 1011,-1622 454,-198 817,-568 1060,-994 44,-182 -8,-380 62,-552 375,-357 986,-1005 608,-1358 275,-244 440,-580 541,-928 -118,-55 -235,-107 -352,-158 328,-195 450,-561 576,-898 -187,-82 -391,-75 -589,-71 140,-291 440,-513 441,-859 -369,11 -688,221 -1039,309 205,-380 665,-610 669,-1091 -411,25 -887,403 -944,483 -97,-26 -260,18 -302,-95 -18,-439 457,-721 358,-1176 -352,46 -618,313 -765,621 -203,219 -406,455 -671,603 -68,-277 105,-620 -108,-845 -159,-326 -567,416 -625,664 -59,376 -412,582 -617,876 -289,333 -452,785 -845,1019 -145,87 -5604,5049 -6374,5970 -3594,3562 -1689,2604 -2317,6656 -654,2325 -723,2022 -1283,2453 -302,242 -680,-7 -1015,81 -469,106 -963,119 -1409,313 -1253,606 -324,1472 -490,1776 -108,180 -212,366 -205,585 205,6 413,-14 615,27 176,111 910,604 796,885 -3924,4647 -4445,4100 -5007,5945 -532,2309 -726,5110 -681,6648 5,674 40,1982 198,2631 232,2559 583,2374 1036,1904 238,294 378,889 627,524 261,-216 285,-587 483,-840 148,188 265,459 540,475 349,-150 368,-563 426,-885 157,79 931,833 910,-1098 175,92 353,178 536,254 573,-303 484,-1246 561,-1322 106,17 206,52 309,86 483,-373 666,-972 661,-1305 97,-29 199,-43 291,-88 401,-190 531,-1322 775,-1580 484,-575 403,-877 302,-1301 735,-573 370,-989 305,-1267 165,-284 355,-212 203,-925 238,-307 444,-637 655,-962 224,-346 697,-1975 972,-2307 19,-24 1488,-2517 1488,-2517z"/>
  <path class="fil0" d="M46737 122543c-138,-8 -275,-14 -410,-22 162,-112 362,-173 496,-323 29,-104 8,-220 -90,-274 -282,29 -557,98 -835,144 62,-192 144,-374 244,-547 -276,-102 -73,-218 -1171,406 -323,146 -692,194 -969,430 0,0 -8020,1725 -11663,3011 -1426,449 -1500,4047 -3279,4759 -143,83 -252,-125 -395,-85 -2008,499 -1897,520 -3572,-204 -2521,-924 -5373,-933 -8281,530 -315,183 -543,-244 -866,-205 3,39 12,115 16,154 -34,23 -105,70 -139,94 62,104 118,217 203,310 155,21 1366,12 1758,260 357,272 3207,514 3466,670 2284,110 2633,61 2961,-523 213,-4 424,-32 628,-94 -550,913 73,692 -14,1164 -55,241 -325,324 -462,510 -15,112 -52,271 82,331 251,-31 440,-220 679,-284 2207,1505 2501,2335 4304,2347 0,0 1683,190 1683,190 1213,182 2195,-376 2529,-355 269,-12 533,108 800,35 315,-23 600,-187 917,-187 278,16 477,-206 724,-291 151,-41 2443,-188 1877,-584 -552,-304 -1207,-232 -1813,-210 19,-43 58,-128 77,-171 -1141,-362 -2174,-523 -2388,-1295 285,-544 -107,-271 1005,-1960 87,-9 176,-16 264,-21 2,-257 123,-481 336,-620 710,-1146 2603,-2482 3060,-2633 229,-29 464,-17 687,-85 79,-15 3210,-841 4485,-1686 409,-171 883,-247 1195,-592 -24,-68 -46,-136 -66,-203 307,-89 606,-219 855,-423 -27,-95 -54,-188 -79,-280 298,-36 604,-142 802,-379 -103,-68 -203,-137 -276,-235 295,-52 581,-158 812,-356 -60,-75 -119,-147 -177,-218z"/>
 </g>
</svg>
