<?xml version="1.0" encoding="UTF-8"?>
<!DOCTYPE svg PUBLIC "-//W3C//DTD SVG 1.1//EN" "http://www.w3.org/Graphics/SVG/1.1/DTD/svg11.dtd">
<!-- Creator: CorelDRAW X8 -->
<svg xmlns="http://www.w3.org/2000/svg" xml:space="preserve" width="278.039mm" height="117.015mm" version="1.1" style="shape-rendering:geometricPrecision; text-rendering:geometricPrecision; image-rendering:optimizeQuality; fill-rule:evenodd; clip-rule:evenodd"
viewBox="0 0 43759 18416"
 xmlns:xlink="http://www.w3.org/1999/xlink">
 <defs>
  <style type="text/css">
   <![CDATA[
    .fil0 {fill:black}
   ]]>
  </style>
 </defs>
 <g id="Layer_x0020_1">
  <metadata id="CorelCorpID_0Corel-Layer"/>
  <path class="fil0" d="M15494 8641c139,-184 159,-209 172,-263 2,-25 29,-34 40,-54 62,-100 18,-90 64,-136 27,-21 27,-59 43,-87 -6,-38 44,-23 73,-100 32,-92 395,-588 832,-842 25,-4 49,-13 74,-18 133,25 188,114 298,81 45,-46 27,-74 48,-100 23,-32 22,-71 24,-108 14,-31 32,-60 49,-90 58,-51 68,-82 89,-162 -4,-55 -143,-26 -338,-25 -23,2 -35,-21 -53,-32 -35,-24 -72,-49 -115,-56 -28,-270 -24,-2 -25,-780 -1,-7 56,-232 67,-242 25,-25 46,-58 42,-96 87,-87 64,-95 99,-150 12,-21 37,-33 43,-58 67,-151 114,-312 124,-341 8,-18 -7,-37 -3,-56 10,-32 33,-59 38,-92 -45,-55 44,-78 17,-128 -11,9 -22,18 -33,26 -10,-45 40,-76 33,-120 -27,13 -37,40 -43,67 -19,-37 -16,-79 -14,-120 -28,8 -19,48 -23,71l-6 0c-1,-13 -1,-27 -1,-41 -20,7 -33,22 -46,36 -1,-14 -1,-29 -1,-44 -34,12 -19,55 -22,81 -9,-4 -18,-8 -26,-12 -35,55 -58,118 -93,174 2,3 6,10 9,13 -118,146 -740,865 -657,1126 2,8 121,519 53,634 -43,18 -94,10 -135,36 -140,80 113,205 -48,408 -33,36 -399,355 -406,361 -153,150 -110,41 -370,683 -417,1128 -94,281 -279,691 -23,24 -54,40 -72,68 10,-2 21,-5 32,-7 4,9 10,19 13,30 -2,13 -17,18 -26,26 -19,13 -33,32 -43,52 6,0 17,0 23,0 78,-81 53,-54 113,-60 -45,41 -39,18 -54,87 51,-13 49,-80 92,-103 -1,22 -2,44 -2,66 50,-23 60,-84 92,-125 2,16 0,32 6,47 19,17 84,-93 97,-114 8,8 17,16 26,24 25,-41 60,-77 77,-122 11,-2 21,-3 32,-4z"/>
  <path class="fil0" d="M11054 9720c10,8 21,17 34,20 42,-22 54,-74 50,-118 17,10 39,44 59,19 23,-33 45,-72 40,-114 19,10 50,27 64,1 20,-37 45,-73 45,-117 16,-2 39,4 48,-15 14,-40 53,-70 46,-115 30,-22 46,-56 60,-89 6,-28 -6,-59 8,-85 11,-34 35,-70 13,-104 -22,-30 -4,-64 -1,-97 -2,-22 -21,-39 -20,-61 -4,-34 10,-68 33,-92 27,-29 35,-68 53,-102 119,-258 320,-416 326,-423 79,13 159,14 240,12 32,-5 55,25 85,30 110,18 220,178 377,171 61,-51 67,-95 85,-132 2,-30 2,-63 26,-84 23,-19 32,-52 60,-65 1,-9 2,-18 3,-27 8,-1 17,-2 26,-3 1,-14 1,-28 6,-41 7,-8 76,-71 58,-116 -71,-57 -262,-51 -358,-71 -33,0 -61,-17 -94,-21 -9,-15 -27,-12 -42,-14 -4,-9 -8,-18 -12,-26 -11,-2 -21,-3 -31,-5 -14,-14 -30,-26 -44,-38 -50,-214 183,-518 191,-523 46,-62 80,-134 143,-182 17,-11 23,-31 27,-50 85,-79 74,-12 171,-84 42,-19 91,-22 126,-53 26,-22 55,-41 88,-52 39,-13 60,-50 92,-73 -2,-9 -3,-18 -4,-26 51,-15 80,-59 116,-94 -7,-7 -14,-13 -21,-20 42,-16 68,-54 103,-81 -10,-18 -32,-16 -49,-18 38,-20 72,-48 97,-83 -6,-7 -12,-15 -18,-22 25,-14 53,-33 58,-64 -24,-1 -47,2 -69,8 6,-26 31,-42 29,-70 -35,-5 -62,21 -95,24 5,-33 26,-61 25,-95 -17,2 -32,9 -46,18 3,4 7,9 11,14 -29,26 -79,23 -108,-3 -35,1 -135,95 -161,112 -29,24 -648,295 -689,317 -639,288 -441,278 -518,629 -1,65 -77,183 -133,247 -36,44 -115,1 -147,23 -11,7 -246,41 -250,130 -11,30 34,54 13,82 -16,30 -54,50 -51,89 31,-5 60,-15 86,-30 39,22 74,49 110,74 -13,56 -139,163 -181,196 -380,307 -320,191 -421,524 -59,232 -24,895 -25,903 5,42 7,84 6,126 21,-5 42,-11 63,-20 15,45 -8,96 43,78 25,-8 29,-39 54,-48 8,21 18,40 29,59 28,3 46,-20 62,-40z"/>
  <path class="fil0" d="M1383 8147c1,9 79,128 84,133 15,26 46,45 77,37 22,-14 38,-38 48,-62 0,-26 -5,-51 -7,-76 9,0 19,-1 29,-2 11,-24 16,-50 26,-74 16,-16 38,-26 49,-45 16,-8 31,-16 48,-22 35,-95 -19,-130 53,-157 3,-7 60,-246 88,-263 6,-105 46,-96 31,-148 -36,-53 -259,73 -492,65 -26,-245 67,-227 117,-396 18,-59 168,-232 195,-263 38,-54 94,-92 137,-142 44,-50 115,-53 170,-86 33,-19 72,-24 108,-38 37,-14 69,-39 107,-49 0,0 301,-117 301,-117 7,-3 108,-81 194,-85 0,-6 1,-17 1,-22 23,-8 48,-12 70,-23 10,-10 16,-24 24,-36 -20,-3 -40,-14 -60,-9 -474,139 -885,179 -1250,300 -336,106 -304,131 -371,327 -99,227 -119,274 -149,273 2,6 4,11 6,17 -20,9 -39,23 -54,39 -22,-3 -41,-14 -48,-36 -28,0 -55,-2 -82,-4 -231,16 -212,128 -203,136 6,13 19,23 20,37 -13,20 -31,36 -45,56 17,26 47,5 71,6 63,87 -35,186 -115,255 -511,405 -462,154 -556,652 -3,91 -12,346 5,427 7,190 77,682 88,714 33,1 40,-35 53,-58 24,31 36,71 58,53 11,-17 14,-38 21,-57 16,8 32,15 51,13 5,-40 6,-81 -11,-118 17,6 34,14 52,20 33,-28 30,-77 30,-117 15,2 37,16 44,-4 22,-33 19,-74 30,-110 9,-4 19,-7 28,-10 71,-227 42,-96 82,-220 7,-24 -4,-53 11,-75 53,-102 18,-77 36,-127 35,-100 6,-114 9,-176 1,-25 -24,-48 -11,-72 68,-140 402,-562 526,-535 50,13 105,22 141,61 28,103 127,167 135,213z"/>
  <path class="fil0" d="M10924 7326c1,-4 5,-10 6,-14 69,3 134,-22 200,-38 80,2 161,-6 240,-18 -1,-16 -4,-32 -9,-48 -68,5 -132,36 -202,34 -298,21 -1408,-72 -1340,-71 -322,-4 -305,57 -682,123 -72,7 -169,6 -182,29 -30,3 -58,18 -88,19 -62,5 -148,49 -140,138 5,21 45,33 25,56 -18,28 -39,55 -34,90 -961,832 -688,1611 -1181,1758 -9,11 6,19 16,14 51,-7 96,-34 137,-64 -19,28 -45,52 -57,84 60,-38 122,-96 124,-96 -8,25 -18,49 -29,73 30,11 7,23 107,-102 1,16 2,33 4,49 36,-19 61,-53 82,-87 0,0 68,-27 127,-121 96,-76 36,-47 189,-168 29,-25 51,-59 70,-92 21,-21 52,-31 67,-57 101,-125 101,-146 119,-183 17,-20 39,-35 48,-60 18,-47 64,-76 77,-125 48,-7 114,-141 118,-153 22,-74 218,-280 239,-311 2,-4 79,-93 135,-146 7,0 158,23 173,32 35,42 83,185 110,207 46,35 180,-75 244,-98 65,-24 44,-74 137,-52 3,-8 6,-16 10,-25 29,-12 32,-49 58,-67 7,-5 168,-127 205,-143 23,-9 39,-30 41,-55 -10,-15 -24,-34 -44,-33 -14,-1 -227,8 -236,-30 -39,-2 -78,0 -116,-2 -2,-3 -6,-9 -8,-12 -27,-5 -55,-2 -81,-3 0,-9 1,-18 2,-27 52,-14 446,-162 579,-159 24,1 47,-10 71,-2 32,10 63,-11 95,-1 23,10 42,-13 66,-12 43,0 86,-8 130,-10 53,-19 370,-21 378,-21z"/>
  <path class="fil0" d="M6127 8395c-33,-2 -65,6 -98,13 20,-28 41,-55 59,-83 -44,-5 -79,28 -120,38 -2,-22 7,-42 17,-61 -34,8 -58,35 -86,54 -22,22 -54,26 -76,48 -134,131 -1138,349 -1304,548 -189,232 -378,454 -481,444 -40,-1 -245,29 -253,29 -66,4 -129,82 -79,141 23,27 -7,57 -14,85 7,25 39,9 58,10 -21,83 -374,229 -569,370 -158,109 -434,775 -440,792 -5,14 -96,210 -101,224 -55,164 -105,168 -184,230 38,-3 73,-21 106,-37 0,47 -56,59 -66,101 70,-7 107,-76 134,-89 -8,89 -21,37 -24,105 45,-12 70,-55 95,-90 25,16 3,52 23,71 35,-22 62,-52 85,-84 11,10 26,22 41,11 29,-20 62,-39 79,-71 13,-1 26,-2 40,-3 26,-34 65,-56 85,-94 7,-15 23,-19 35,-28 21,-15 37,-35 55,-54 19,-22 20,-59 49,-73 37,-28 78,-63 83,-112 101,-73 89,-109 91,-162 24,-13 67,-105 108,-111 31,-6 50,-34 65,-59 11,-19 33,-23 49,-36 15,-12 20,-32 30,-47 14,-15 31,-26 45,-41 11,-15 19,-33 37,-40 60,-29 320,-297 464,-343 296,33 319,108 390,167 152,190 190,81 238,59 21,-18 51,-27 64,-53 5,-1 13,-3 18,-4 30,-77 46,-109 116,-125 21,-25 140,-120 144,-174 -108,-51 -326,-68 -454,-131 -26,-1 -51,-9 -73,-21 -4,-36 3,-80 41,-93 24,-92 266,-279 271,-287 30,-22 51,-56 89,-67 27,-8 31,-45 62,-46 28,-3 44,-26 65,-43 141,-57 2,-17 141,-75 16,-8 14,-29 12,-43 19,-12 40,-20 56,-36 23,-30 66,-30 92,-56 35,-36 137,2 209,-101 93,-9 135,-86 156,-92 42,-15 88,-36 105,-81 34,-14 63,-37 93,-58 -2,-9 -4,-17 -6,-26 27,-13 51,-32 76,-49 0,-5 -1,-13 -2,-18 -8,-3 -17,-6 -24,-9 29,-10 54,-29 78,-50 -36,-24 -39,-2 -102,-3 -19,-21 69,-31 107,-81z"/>
  <path class="fil0" d="M26837 9243c-407,-46 -1340,-535 -1517,-476 -62,6 -118,112 -174,152 -133,114 -96,68 -383,152 -33,10 -305,5 -348,133 0,28 13,56 33,76 -103,109 -321,96 -498,171 -83,38 -107,168 -131,264 -75,264 255,810 258,818 4,1 12,3 16,5 12,26 35,46 46,72 4,1 12,3 16,4 8,39 36,68 60,98 18,20 39,-13 60,-8 46,-5 37,77 112,11 17,-1 36,2 52,-7 13,-74 2,-286 2,-286 10,-39 19,-79 3,-118 -16,-36 8,-73 2,-110 -2,-27 -30,-48 -22,-77 9,-38 -2,-78 -22,-111 21,-81 2,-54 -3,-113 100,-170 79,-178 287,-303 20,-8 39,-20 61,-22 275,94 264,21 440,39 52,23 97,63 156,70 50,14 104,-5 153,16 74,20 260,-17 277,-62 -23,-20 -102,-68 -188,-88 2,-4 5,-10 7,-14 -29,-8 -51,-32 -81,-36 -14,-21 -35,-38 -50,-59 -30,-20 -48,-51 -70,-78 -5,-15 -6,-32 -12,-47 27,-22 265,-272 460,-199 490,193 795,196 954,200 30,-4 63,6 89,-12 -20,-15 -55,-24 -45,-55z"/>
  <path class="fil0" d="M42626 9588c-5,1 -15,2 -20,3 6,87 -156,189 -225,209 -37,14 -75,0 -112,-7 -30,-3 -42,-43 -74,-38 -81,5 -251,37 -257,114 -4,29 18,51 27,76 -15,27 -47,46 -44,81 24,-4 45,-19 69,-18 21,13 35,35 49,55 -37,83 -156,109 -181,120 -250,103 -421,27 -224,540 42,108 262,467 436,664 12,25 31,46 57,58 51,23 72,85 128,101 11,-32 11,-66 10,-99 45,0 29,24 104,38 5,-19 27,-41 11,-58 -9,-12 -21,-20 -29,-32 1,-11 3,-22 5,-32 23,5 46,15 70,17 38,-8 21,-55 23,-83 19,-4 37,-12 54,-20 2,-24 2,-48 6,-71 53,-65 17,-57 40,-152 -2,-54 16,-107 6,-160 -29,-182 -9,-92 -62,-162 -11,-22 -13,-51 -34,-66 -30,-22 -68,-36 -85,-70 -10,-20 -27,-33 -49,-33 12,-250 404,-176 588,-65 95,50 106,-23 195,-40 -6,-28 -19,-65 8,-86 23,-23 34,-60 66,-72 39,-17 67,-53 110,-62 4,-9 8,-19 12,-27 12,-1 24,-1 36,-2 8,-22 9,-45 6,-68 -25,1 -51,10 -76,0 -42,-17 -326,-25 -334,-26 13,-35 26,-71 42,-105 29,-56 158,-131 174,-136 139,-47 137,-3 194,13 37,11 239,104 248,109 51,31 112,39 165,67l0 -73c-1048,-668 -1095,-547 -1133,-402z"/>
  <path class="fil0" d="M36563 9829c-43,-1 -84,25 -128,14 12,-19 41,-21 46,-45 -77,13 -32,37 -153,39 -1,-24 9,-45 23,-64 -38,-3 -50,45 -82,57 -24,8 -44,23 -59,43 -42,-4 -77,24 -117,30 -277,51 -849,26 -1149,107 -117,48 -228,295 -473,318 -13,-2 -22,-12 -32,-18 -104,21 -335,16 -223,201 -14,22 -27,46 -27,72 23,2 56,-21 72,6 4,10 19,22 10,34 -57,91 -265,263 -291,282 -128,112 -137,90 -189,299 -57,232 -41,670 -55,772 0,1 5,46 -28,336 -27,21 -2,64 -19,92 -12,20 -31,37 -34,61 62,-38 47,-63 80,-64 2,31 5,62 13,92 -12,11 -16,26 -14,42 43,-10 36,-66 66,-89 3,16 11,31 23,44 -10,48 38,76 44,-82 4,0 11,0 14,-1 17,19 27,43 40,65 5,0 15,-1 20,-1 15,-26 33,-53 33,-84 3,-22 -6,-48 12,-64 11,24 20,50 37,71 33,5 16,-9 58,-78 14,-21 8,-46 10,-69 5,0 16,1 21,1 6,8 13,16 20,24 62,-33 43,-58 78,-123 65,-32 102,-140 103,-164 77,-58 62,-132 65,-155 67,-121 32,-110 15,-186 8,-28 39,-55 22,-85 -8,-19 -22,-39 -11,-60 18,-32 73,-230 92,-263 13,-37 51,-60 55,-100 132,-96 162,-467 677,-120 178,122 210,-52 269,-66 36,-9 62,-36 92,-56 63,-44 63,-37 43,-94 -67,-4 -348,-126 -360,-129 -25,-32 -68,-36 -102,-53 -8,-11 -6,-24 -5,-36 -5,0 -16,-1 -22,-1 -18,-160 337,-366 487,-374 56,-8 114,-8 168,-25 27,-9 54,-11 82,-11 38,2 28,-28 109,-31 142,6 145,-28 184,-40 39,-12 82,-15 117,-38 19,-8 30,-29 52,-34 31,-9 62,-22 85,-46 18,-22 47,-26 72,-38 -2,-3 -6,-10 -8,-13 -24,0 -48,0 -72,-1 35,-28 93,-4 121,-42 -17,-2 -35,-3 -50,-9 23,-3 47,-4 71,-5 -1,-3 -4,-10 -5,-14 -9,-3 -18,-6 -27,-9 13,-6 28,-8 34,-22z"/>
  <path class="fil0" d="M21858 13773c-7,0 -577,-4 -675,22 -81,21 -124,-3 -204,130 -27,32 -120,141 -152,165 -34,28 -60,66 -101,85 -15,6 -32,13 -36,30 -27,4 -52,11 -79,12 -26,-7 -48,-27 -76,-31 -35,-7 -186,2 -201,76 -1,32 48,137 35,190 -21,35 -54,61 -86,86 -512,345 -534,74 -595,1288 -11,91 -29,418 -28,424 11,1 22,2 33,3 7,10 7,32 24,29 21,-29 21,-64 28,-96 5,-1 14,-1 19,-1 1,12 2,24 3,36 10,2 23,14 31,1 20,-23 14,-55 17,-83 23,6 32,33 56,37 16,-29 21,-63 38,-90 42,-25 49,-77 74,-113 51,-35 41,-109 88,-145 21,-34 75,-273 88,-314 12,-35 -4,-73 8,-108 10,-34 14,-70 7,-104 -13,-38 204,-304 320,-374 146,-88 226,-257 496,-7 15,16 21,43 45,49 1,8 2,16 4,25 21,10 40,25 47,50 41,-6 107,-51 122,-85 3,1 9,2 12,2 4,-14 7,-28 11,-42 17,0 34,0 51,0 -4,-20 2,-40 5,-60 178,-101 154,-83 175,-142 -19,-14 -42,-24 -62,-37 -22,-15 -53,-3 -73,-21 -16,-14 -34,-22 -54,-21 -8,-9 -15,-18 -22,-27 -24,1 -43,-12 -55,-31 -9,-2 -18,-3 -27,-3 2,-95 -28,-144 124,-317 285,-375 422,-239 833,-344 31,-8 63,-1 95,-8 35,-7 65,-30 102,-27 28,1 192,-55 200,-56 15,-3 30,-6 45,-9 0,-7 -1,-14 -1,-21 26,-5 57,0 76,-21 -18,-2 -37,-2 -55,-2l0 -6c25,0 54,-1 71,-24 0,0 -494,40 -801,30z"/>
  <path class="fil0" d="M26307 113c-15,6 -31,12 -47,16 0,-5 1,-17 2,-22 6,-4 12,-9 18,-12 2,-20 13,-35 27,-47 -23,-14 -52,7 -54,31 -16,5 -32,8 -49,10 2,-11 3,-22 5,-33 9,-2 19,-4 27,-9 -2,-6 -5,-12 -10,-17 5,-10 9,-20 13,-30 -37,-2 -40,42 -100,93 -7,2 -16,15 -23,7 -6,-24 -7,-52 -26,-71 -21,10 -14,37 -23,55 -6,28 -35,42 -45,68 -11,27 -26,52 -40,78 -348,373 -533,492 -677,640 -283,336 -114,304 -253,662 -20,43 -26,96 -68,124 -67,84 -243,12 -374,147 -1,11 -1,23 -1,35 -317,75 -426,30 -779,315 -277,242 -245,160 -336,166 0,6 -1,18 -1,24 63,21 133,11 192,-17 -2,11 -5,22 -6,33 23,-1 47,-6 69,-17 24,-11 639,-151 722,-147 47,3 85,-30 131,-32 0,-10 1,-20 1,-29 67,-17 137,-22 202,-46 59,-48 99,-8 191,9 297,55 203,14 364,10 36,-16 76,-14 115,-13 -20,-25 25,-15 39,-16 -1,-4 -1,-12 -2,-16 25,10 52,16 78,22 37,23 80,29 120,45 -4,3 -13,8 -17,11 56,12 110,39 168,29 4,-9 9,-17 13,-26 61,-13 141,-98 169,-142 23,-25 36,-60 68,-76 13,-7 42,-53 -105,-58 -35,-3 -72,-1 -103,-19 -52,4 -101,-15 -152,-17 -7,-8 -13,-15 -20,-22 -40,-5 -87,-5 -118,-36 -42,-36 -43,-100 -24,-148 29,-62 29,-106 134,-276 23,-41 40,-85 61,-126 168,-223 115,-222 154,-288 26,-23 71,-23 88,-58 9,-13 11,-30 18,-44 20,-48 111,-58 110,-169 81,-77 49,-105 86,-161 22,-35 35,-77 24,-118 22,-32 28,-71 31,-108 -4,-2 -10,-7 -13,-9 9,-23 20,-46 25,-71 -1,-18 -21,-14 -33,-12 14,-19 29,-37 39,-58 -1,-3 -3,-10 -5,-14z"/>
  <path class="fil0" d="M42234 15772c-54,5 -104,28 -157,39 2,-5 5,-14 7,-18 21,-7 45,-9 57,-29 -14,4 -27,10 -40,14 -21,-4 -40,-36 -61,-20 -20,11 -45,14 -59,33 -14,16 -36,15 -55,20 1,3 2,11 2,15 -479,228 -953,73 -1606,507 -179,119 -296,-43 -463,17 -28,5 -56,24 -63,54 -11,31 10,61 21,89 -51,16 -418,-4 -751,110 -583,243 -704,415 -994,386 1,3 4,8 5,11 39,9 80,24 121,12 -7,7 -13,15 -18,24 38,0 73,-16 109,-25 -2,4 -5,13 -7,18 110,-28 121,-44 127,-18 40,-10 79,-23 120,-30 7,4 13,8 20,14 57,-10 116,-32 175,-14 44,-4 89,-9 132,-19 23,3 45,13 69,11 42,4 81,-22 124,-15 99,18 115,-38 154,-32 28,3 59,-2 73,-30 46,-3 91,2 136,-2 8,-3 395,-118 496,-93 83,-46 13,23 417,204 61,34 91,102 145,144 20,6 457,-36 421,-103 -30,-29 -68,-51 -107,-66 -210,-194 -224,-196 -207,-269 7,-45 138,-106 149,-113 40,-7 68,-42 108,-49 84,-47 212,-110 306,-134 28,-18 58,-24 90,-27 45,-26 101,-32 138,-70 40,-36 76,-6 130,-41 38,-29 88,-26 131,-40 33,-6 51,-37 80,-51 30,-11 62,-19 92,-32 19,-12 21,-36 33,-53 159,-54 131,-72 134,-96 35,-13 68,-31 100,-49 3,-12 7,-23 11,-35 27,-6 55,-14 71,-40 -13,0 -25,-1 -37,-2 24,-18 59,-19 77,-45 -40,-7 -75,15 -114,15 34,-39 81,-23 158,-77z"/>
  <path class="fil0" d="M21029 16920c-30,0 -54,-18 -82,-20 -54,-28 -367,-134 -438,-159 -373,-151 -572,-151 -595,-155 -233,8 -157,31 -210,123 -102,182 -281,239 -343,197 24,-1 47,-12 62,-31 -198,15 -400,9 -393,151 -115,47 -611,-80 -473,529 21,174 201,565 272,510 0,-21 0,-43 0,-64 100,87 57,67 99,40 -7,-26 -14,-52 -22,-77 34,25 68,69 115,55 -6,-27 -12,-53 -23,-78 91,53 79,-16 87,-45 10,-1 19,-2 29,-3 12,-19 20,-41 31,-62 20,-22 42,-46 47,-77 1,-33 32,-56 26,-90 -8,-38 23,-71 12,-109 -11,-29 12,-60 -6,-87 -14,-20 -2,-42 7,-62 -8,-16 -22,-36 -4,-50 102,-107 7,54 384,75 149,22 245,12 245,12 23,-73 159,97 370,104 -4,-11 -19,-19 -16,-31 0,-20 25,-17 39,-22 44,-6 62,-60 107,-64 28,-3 51,-22 76,-34 1,-9 1,-18 1,-26 -7,-3 -319,-103 -345,-140 -19,-2 -38,-2 -56,-3 -23,-34 -62,-68 20,-178 240,-224 271,-228 830,-68 66,12 131,39 200,33 41,15 85,19 127,2 -7,-33 -5,-56 -180,-96z"/>
  <path class="fil0" d="M26726 17103c-1,-33 -40,-35 -65,-37 -34,3 -67,-13 -101,-9 -91,4 -182,-5 -279,-21 -243,-17 -170,-6 -286,-9 -187,-26 -458,-9 -704,71 -78,25 -82,132 -336,424 -33,4 -379,-64 -404,71 -42,-19 -86,-35 -131,-44 -374,-69 -336,-128 -569,138 -49,53 -43,131 -68,195 -30,311 38,500 74,493 21,3 28,-23 36,-39 15,30 26,70 63,80 25,-33 15,-74 19,-112 18,23 30,51 54,70 10,2 23,2 28,-9 3,-31 0,-62 1,-92 18,21 32,51 62,56 27,0 40,-30 42,-53 34,3 63,-20 70,-53 27,-4 54,-19 62,-46 14,-46 45,-8 61,-107 34,-17 40,-54 37,-88 7,-7 15,-14 22,-20 -2,-32 0,-63 15,-92 2,-13 73,-63 161,-61 50,171 309,315 479,369 22,9 50,7 67,25 29,26 53,57 86,78 31,4 64,2 91,-15 19,4 33,19 51,26 14,-99 186,-49 255,-147 32,-5 66,-11 88,-36 2,-9 3,-23 -9,-26 -52,-18 -131,-29 -147,-48 -1,-1 -129,-66 -139,-69 -43,-22 -95,-48 -105,-100 -4,-1 -11,-3 -15,-4 -15,-192 134,-300 180,-359 284,-247 399,-161 453,-190 29,-18 60,8 91,-1 57,-20 117,6 174,-12 42,-16 85,7 127,-5 18,-6 45,2 54,-19 65,6 122,-35 187,-34 1,-5 3,-15 3,-20 28,1 57,0 84,-10 0,-10 0,-20 1,-30 17,0 34,1 51,-2 29,-28 10,-29 65,-40 -1,-11 -2,-22 -3,-32 -11,-2 -22,-4 -33,-5z"/>
  <path class="fil0" d="M25486 17988c1,26 23,-12 0,0l0 0z"/>
 </g>
</svg>
