<?xml version="1.0" encoding="UTF-8"?>
<!DOCTYPE svg PUBLIC "-//W3C//DTD SVG 1.1//EN" "http://www.w3.org/Graphics/SVG/1.1/DTD/svg11.dtd">
<!-- Creator: CorelDRAW X8 -->
<svg xmlns="http://www.w3.org/2000/svg" xml:space="preserve" width="138.224mm" height="41.4671mm" version="1.1" style="shape-rendering:geometricPrecision; text-rendering:geometricPrecision; image-rendering:optimizeQuality; fill-rule:evenodd; clip-rule:evenodd"
viewBox="0 0 13275 3982"
 xmlns:xlink="http://www.w3.org/1999/xlink">
 <defs>
  <style type="text/css">
   <![CDATA[
    .fil0 {fill:black;fill-rule:nonzero}
   ]]>
  </style>
 </defs>
 <g id="Layer_x0020_1">
  <metadata id="CorelCorpID_0Corel-Layer"/>
  <path class="fil0" d="M3319 3319l0 -3319 663 0 0 3982 -3982 0 0 -3982 664 0 0 3319 995 0 0 -3319 664 0 0 3319 996 0zm4722 -3319l0 664 -2731 0 0 995 3318 0 0 2323 -3982 0 0 -663 3319 0 0 -996 -3319 0 0 -2323 3395 0zm5234 3982l-664 0 0 -3318 -996 0 0 3318 -663 0 0 -3318 -996 0 0 3318 -664 0 0 -3982 3983 0 0 3982z"/>
 </g>
</svg>
