<?xml version="1.0" encoding="UTF-8"?>
<!DOCTYPE svg PUBLIC "-//W3C//DTD SVG 1.1//EN" "http://www.w3.org/Graphics/SVG/1.1/DTD/svg11.dtd">
<!-- Creator: CorelDRAW 2018 (64-Bit) -->
<svg xmlns="http://www.w3.org/2000/svg" xml:space="preserve" width="3.47351in" height="1.0758in" version="1.1" style="shape-rendering:geometricPrecision; text-rendering:geometricPrecision; image-rendering:optimizeQuality; fill-rule:evenodd; clip-rule:evenodd"
viewBox="0 0 220.55 68.31"
 xmlns:xlink="http://www.w3.org/1999/xlink">
 <defs>
  <style type="text/css">
   <![CDATA[
    .fil1 {fill:#FEFEFE}
    .fil0 {fill:#FEFEFE;fill-rule:nonzero}
   ]]>
  </style>
 </defs>
 <g id="Layer_x0020_1">
  <metadata id="CorelCorpID_0Corel-Layer"/>
  <path class="fil0" d="M172.83 36.81l8.66 14.39 -3.92 0 -1.28 -2.13 -3.49 -5.78 -3.47 5.78 -1.27 2.13 -3.86 0 8.62 -14.39zm-58.41 11.31c0.52,0 1.01,-0.1 1.46,-0.29 0.45,-0.19 0.84,-0.47 1.18,-0.83 0.33,-0.36 0.6,-0.8 0.79,-1.31 0.19,-0.51 0.28,-1.07 0.28,-1.69 0,-0.63 -0.09,-1.2 -0.28,-1.7 -0.19,-0.5 -0.45,-0.93 -0.79,-1.3 -0.33,-0.36 -0.73,-0.64 -1.18,-0.83 -0.45,-0.19 -0.94,-0.29 -1.46,-0.29 -0.52,0 -1.01,0.1 -1.46,0.29 -0.45,0.19 -0.84,0.47 -1.18,0.83 -0.33,0.36 -0.6,0.79 -0.79,1.3 -0.19,0.5 -0.28,1.07 -0.28,1.7 0,0.62 0.09,1.18 0.28,1.69 0.19,0.51 0.45,0.94 0.79,1.31 0.33,0.36 0.73,0.64 1.18,0.83 0.45,0.19 0.94,0.29 1.46,0.29zm7.06 -7.09c0.39,0.9 0.58,1.9 0.58,2.98 0,1.08 -0.19,2.08 -0.58,2.99 -0.39,0.91 -0.92,1.7 -1.6,2.37 -0.68,0.67 -1.48,1.19 -2.41,1.56 -0.92,0.37 -1.94,0.55 -3.05,0.55 -1.1,0 -2.11,-0.18 -3.04,-0.55 -0.93,-0.37 -1.74,-0.89 -2.43,-1.57 -0.69,-0.68 -1.22,-1.47 -1.6,-2.37 -0.38,-0.9 -0.57,-1.9 -0.57,-2.98 0,-1.08 0.19,-2.08 0.57,-2.98 0.38,-0.9 0.91,-1.7 1.6,-2.37 0.69,-0.68 1.5,-1.2 2.43,-1.57 0.93,-0.37 1.94,-0.56 3.04,-0.56 1.11,0 2.13,0.18 3.05,0.56 0.92,0.37 1.72,0.89 2.41,1.57 0.68,0.68 1.21,1.47 1.6,2.37zm91.46 1.98c0.56,0.18 1.06,0.43 1.52,0.74 0.46,0.31 0.83,0.71 1.11,1.21 0.28,0.5 0.42,1.13 0.42,1.88 0,0.84 -0.23,1.61 -0.68,2.31 -0.45,0.71 -1.13,1.27 -2.02,1.7 -0.9,0.42 -2.03,0.64 -3.39,0.64 -1.13,0 -2.21,-0.15 -3.25,-0.44 -1.04,-0.29 -1.89,-0.68 -2.54,-1.14l2.27 -2.44c0.81,0.54 2.58,0.85 3.54,0.85 0.54,0 0.97,-0.05 1.3,-0.15 0.33,-0.1 0.57,-0.24 0.72,-0.41 0.15,-0.17 0.23,-0.37 0.23,-0.61 0,-0.33 -0.14,-0.59 -0.43,-0.78 -0.29,-0.19 -0.66,-0.35 -1.12,-0.47 -0.46,-0.12 -0.97,-0.25 -1.52,-0.37 -0.56,-0.12 -1.11,-0.28 -1.67,-0.47 -0.56,-0.19 -1.06,-0.44 -1.52,-0.75 -0.46,-0.31 -0.83,-0.71 -1.12,-1.21 -0.29,-0.5 -0.43,-1.13 -0.43,-1.9 0,-0.86 0.23,-1.64 0.68,-2.34 0.45,-0.7 1.13,-1.26 2.03,-1.69 0.9,-0.42 2.03,-0.64 3.38,-0.64 0.9,0 1.79,0.11 2.66,0.32 0.87,0.21 1.65,0.52 2.33,0.94l-2.31 2.48c-0.69,-0.39 -1.91,-0.57 -2.7,-0.57 -0.54,0 -0.97,0.06 -1.3,0.17 -0.33,0.12 -0.56,0.27 -0.71,0.46 -0.14,0.19 -0.22,0.41 -0.22,0.66 0,0.32 0.14,0.57 0.42,0.75 0.28,0.18 0.65,0.34 1.12,0.45 0.46,0.12 0.98,0.24 1.53,0.36 0.56,0.12 1.11,0.28 1.67,0.46zm-111.44 -6.2l3.2 0 0.04 14.39 -3.57 0 -0.03 -7.64 -4.39 7.71 -4.39 -7.5 0 7.42 -3.59 0 0 -14.39 3.2 0 4.84 8.31 4.71 -8.31zm26.37 0l0 7.85c0,1.23 0.23,2.12 0.7,2.65 0.46,0.53 1.1,0.8 1.91,0.8 0.81,0 1.45,-0.27 1.9,-0.8 0.46,-0.53 0.69,-1.42 0.69,-2.65l0 -7.85 3.83 0 0 7.98c0,2.14 -0.57,3.79 -1.71,4.95 -1.14,1.16 -2.72,1.75 -4.75,1.75 -2.03,0 -3.61,-0.58 -4.75,-1.75 -1.14,-1.16 -1.71,-2.82 -1.71,-4.95l0 -7.98 3.89 0zm20.94 0l3.81 0 0 14.39 -3.2 0 -6.07 -7.67 0 7.67 -3.81 0 0 -14.39 3.2 0 6.07 7.67 0 -7.67zm17.58 0l0 3.23 -4.2 0 0 11.16 -3.89 0 0 -11.16 -4.22 0 0 -3.23 12.31 0zm22.86 0l3.2 0 6.07 7.67 0 -7.67 3.81 0 0 14.39 -3.2 0 -6.07 -7.67 0 7.67 -3.81 0 0 -14.39zm-2.77 0l0 14.39 -3.89 0 0 -14.39 3.89 0zm19.14 -19.75l0 15.13 -4.21 0 0 -15.13 4.21 0zm1.59 0l13.33 0 0 3.39 -4.55 0 0 11.74 -4.21 0 0 -11.74 -4.57 0 0 -3.39zm-53.35 0l4.14 0 0 8.39c0,2.25 -0.62,3.98 -1.85,5.21 -1.23,1.22 -2.95,1.84 -5.14,1.84 -2.2,0 -3.91,-0.61 -5.14,-1.84 -1.23,-1.22 -1.85,-2.96 -1.85,-5.21l0 -8.39 4.21 0 0 8.26c0,1.3 0.25,2.23 0.75,2.79 0.5,0.56 1.19,0.84 2.07,0.84 0.88,0 1.57,-0.28 2.06,-0.84 0.5,-0.56 0.74,-1.49 0.74,-2.79l0 -8.26zm-32.27 0l0 3.31 -7.5 0 0 2.55 6.61 0 0 3.2 -6.61 0 0 2.77 7.78 0 0 3.31 -11.95 0 0 -15.13 11.67 0zm-17.2 0l4.02 0 -4.83 15.13 -4.51 0 -2.85 -9.21 -2.97 9.21 -4.51 0 -4.83 -15.13 4.34 0 2.99 9.66 3.15 -9.66 3.87 0 3.01 9.75 3.12 -9.75zm68.4 28.62l1.96 3.25 -3.91 0 1.95 -3.25zm1.83 -28.62l3.46 0 0.04 15.13 -3.86 0 -0.04 -8.03 -4.75 8.11 -4.75 -7.88 0 7.8 -3.88 0 0 -15.13 3.46 0 5.23 8.74 5.09 -8.74zm20.28 0l3.46 0 0.04 15.13 -3.86 0 -0.04 -8.03 -4.75 8.11 -4.75 -7.88 0 7.8 -3.88 0 0 -15.13 3.46 0 5.23 8.74 5.09 -8.74zm-56.04 6.55c0.6,0.19 1.15,0.45 1.64,0.78 0.49,0.32 0.89,0.75 1.2,1.27 0.3,0.52 0.46,1.18 0.46,1.97 0,0.88 -0.24,1.68 -0.73,2.42 -0.49,0.74 -1.21,1.33 -2.18,1.78 -0.97,0.44 -2.18,0.67 -3.65,0.67 -1.21,0 -2.38,-0.15 -3.51,-0.46 -1.12,-0.31 -2.04,-0.71 -2.74,-1.19l2.45 -2.55c0.88,0.57 2.79,0.89 3.82,0.89 0.58,0 1.04,-0.05 1.4,-0.16 0.35,-0.11 0.61,-0.25 0.77,-0.43 0.16,-0.18 0.24,-0.39 0.24,-0.63 0,-0.34 -0.16,-0.62 -0.47,-0.82 -0.31,-0.2 -0.71,-0.37 -1.21,-0.49 -0.49,-0.13 -1.04,-0.26 -1.64,-0.39 -0.6,-0.13 -1.2,-0.29 -1.8,-0.49 -0.6,-0.2 -1.15,-0.46 -1.64,-0.79 -0.49,-0.32 -0.9,-0.75 -1.21,-1.27 -0.31,-0.52 -0.47,-1.19 -0.47,-1.99 0,-0.9 0.24,-1.72 0.73,-2.45 0.49,-0.73 1.22,-1.32 2.19,-1.77 0.97,-0.44 2.19,-0.67 3.64,-0.67 0.97,0 1.93,0.11 2.87,0.33 0.94,0.22 1.78,0.55 2.51,0.98l-2.49 2.6c-0.75,-0.41 -2.06,-0.59 -2.91,-0.59 -0.58,0 -1.04,0.06 -1.4,0.18 -0.35,0.12 -0.61,0.28 -0.76,0.48 -0.16,0.2 -0.23,0.43 -0.23,0.69 0,0.33 0.15,0.59 0.46,0.79 0.3,0.19 0.71,0.35 1.21,0.47 0.5,0.12 1.05,0.25 1.65,0.38 0.6,0.13 1.2,0.29 1.8,0.48z"/>
  <path class="fil1" d="M9.63 39.85l3.26 -2.98 2.36 -3.3 2.63 -1.75c-0.23,1 -0.25,1.07 -1.05,1.59l-2.61 3.94c-1.73,1.42 0.07,-0.79 -2.13,1.17 -0.26,0.23 -0.46,0.36 -0.74,0.59 -0.45,0.37 -1.31,0.47 -1.72,0.74zm-4.12 6.33l-0.94 -0.94c-3.05,-3.05 -4.58,-7.08 -4.58,-11.09 0,-4.02 1.53,-8.04 4.58,-11.09l0 0 0 0 18.48 -18.48c3.05,-3.05 7.08,-4.58 11.09,-4.58 4.02,0 8.04,1.53 11.09,4.58l18.48 18.48c3.05,3.05 4.58,7.08 4.58,11.09 -0.03,4.24 -1.6,8.09 -4.58,11.09 -1.65,1.65 -4.5,4.61 -7.79,7.79l-10.69 10.69c-3.05,3.05 -7.08,4.58 -11.09,4.58 -0.92,0 -1.83,-0.08 -2.74,-0.24 0.41,-0.34 1.11,-1.17 1.68,-1.65 0.59,-0.5 0.99,-1.06 1.58,-1.56 1.12,-0.95 6.01,-3.32 6.96,-4.51 1.06,-1.06 12.66,-12.25 12.16,-12.44 -4.41,3.51 -8.3,6.41 -8.92,6.67 -0.26,0.11 -2.9,2.37 -4.54,3.24 -2.29,1.22 -5.19,2.52 -7.61,3.08 0.84,-1.21 4.42,-2.81 6.06,-4.73 -0.97,0.46 -4.1,0.73 -5.12,1.35 -3.27,1.65 -2.36,-0.5 -5.61,1.13 -1.5,0.2 -3.17,1.44 -5.47,1.44 3.19,-2.74 4.55,-3.58 8.14,-6.1 0.9,-0.63 4.34,-6.09 4.88,-7.34 -1.09,0.86 -1.82,1.75 -2.68,2.6 -0.95,0.94 -3.07,2.89 -4.15,3.61 -1.06,0.7 -3.65,2.87 -4.72,2.87 -1.35,0 -2.32,-0.5 -3.14,-0.5 -1.13,0 -5.61,1.98 -7.63,2.15 2.93,-3.15 4.07,-3.03 8.14,-6.26 1.31,-1.04 2.8,-2.09 3.98,-3.28 0.59,-0.59 1.3,-1.22 1.8,-1.83l3.48 -3.78c0.62,-0.61 1.9,-2.48 2.72,-2.77 0.19,-0.07 0.67,-0.76 0.86,-0.76 0.24,0.25 0.19,0.14 0.43,0.53 0.98,-0.72 5.67,-8.3 5.92,-9.39l-3 3.31c-0.49,0.55 -1.17,1.33 -1.63,1.89 -1.75,2.17 -3.8,3.86 -5.8,5.88l-3.3 2.97c-1.64,1.66 -4.62,4.1 -6.62,5.6 -1,0.75 -4.11,1.99 -5.4,2.09 1.87,-2.48 1.39,-0.91 3.3,-3.2 1.55,-0.99 3.02,-1.68 4.39,-3.51 -1.54,1.05 -2.94,1.05 -4.55,2.26 -1.57,1.18 -1.5,-0.26 -3.16,0.82 -2.41,1.58 -7.41,5.48 -9.96,5.48 1.25,-1.55 5.68,-4.23 6.26,-5.8 -1.09,0.72 -4.48,3 -5.57,3.68 -1.23,0.78 -3.42,2.11 -4.82,2.11 1.51,-1.86 4.63,-3.78 5.87,-6.11 -0.94,0.08 -1.65,0.71 -2.74,0.71 0.59,-0.69 1.13,-1.24 1.6,-1.85zm0.6 -16.92c-0.78,1.53 -1.16,3.21 -1.16,4.89 0,2.02 0.56,4.04 1.68,5.79 1.36,-0.97 2.81,-1.72 3.15,-1.99 1.08,-1.37 2.98,-2.61 4.52,-5.6l4.73 -2.76c0.78,0.51 1.01,0.86 1.66,1.84 0.87,1.3 1.6,2.96 3.02,3.82 0.89,1.38 3.23,3.14 4.12,4.26 1.28,-0.49 2.23,-1.68 2.94,-2.33 0.59,-0.54 0.87,-0.91 1.38,-1.43 0.52,-0.54 0.94,-0.9 1.41,-1.39 0.57,-0.58 4.76,-5.36 5.09,-6.01 0.74,-0.47 4.37,-4.37 6.07,-5.49 0.46,0.18 0.3,0.11 0.66,0.51l1.33 1.59c0.04,0.04 10.3,9.15 10.53,9.32 1.57,2.36 4.28,4.3 4.96,4.77 0.78,-1.53 1.16,-3.21 1.16,-4.89 0,-2.75 -1.04,-5.51 -3.13,-7.59l-18.48 -18.48c-2.09,-2.09 -4.84,-3.13 -7.59,-3.13 -2.75,0 -5.51,1.04 -7.59,3.13l-18.48 18.48c-0.81,0.81 -1.47,1.73 -1.96,2.7z"/>
 </g>
</svg>
