<?xml version="1.0" encoding="UTF-8"?>
<!DOCTYPE svg PUBLIC "-//W3C//DTD SVG 1.1//EN" "http://www.w3.org/Graphics/SVG/1.1/DTD/svg11.dtd">
<!-- Creator: CorelDRAW 2018 (64-Bit) -->
<svg xmlns="http://www.w3.org/2000/svg" xml:space="preserve" width="3.47351in" height="1.0758in" version="1.1" style="shape-rendering:geometricPrecision; text-rendering:geometricPrecision; image-rendering:optimizeQuality; fill-rule:evenodd; clip-rule:evenodd"
viewBox="0 0 272.95 84.54"
 xmlns:xlink="http://www.w3.org/1999/xlink">
 <defs>
  <style type="text/css">
   <![CDATA[
    .fil1 {fill:black}
    .fil4 {fill:#036588}
    .fil3 {fill:#53C4EE}
    .fil2 {fill:#B1E2F5}
    .fil0 {fill:black;fill-rule:nonzero}
   ]]>
  </style>
 </defs>
 <g id="Layer_x0020_1">
  <metadata id="CorelCorpID_0Corel-Layer"/>
  <path class="fil0" d="M171.88 29.22c0.74,0.24 1.42,0.56 2.03,0.96 0.61,0.4 1.11,0.92 1.48,1.57 0.38,0.65 0.56,1.46 0.56,2.44 0,1.08 -0.3,2.08 -0.9,3 -0.6,0.91 -1.5,1.65 -2.7,2.2 -1.2,0.55 -2.7,0.83 -4.52,0.83 -1.5,0 -2.95,-0.19 -4.34,-0.57 -1.39,-0.38 -2.52,-0.87 -3.39,-1.48l3.03 -3.16c1.09,0.7 3.45,1.11 4.72,1.11 0.72,0 1.29,-0.07 1.73,-0.2 0.44,-0.13 0.76,-0.31 0.96,-0.53 0.2,-0.22 0.3,-0.48 0.3,-0.79 0,-0.43 -0.19,-0.76 -0.58,-1.01 -0.38,-0.25 -0.88,-0.45 -1.49,-0.61 -0.61,-0.16 -1.29,-0.32 -2.03,-0.48 -0.74,-0.16 -1.49,-0.36 -2.23,-0.61 -0.74,-0.25 -1.42,-0.57 -2.03,-0.97 -0.61,-0.4 -1.11,-0.92 -1.49,-1.57 -0.38,-0.65 -0.58,-1.47 -0.58,-2.46 0,-1.12 0.3,-2.13 0.9,-3.04 0.6,-0.91 1.51,-1.63 2.71,-2.18 1.21,-0.55 2.71,-0.83 4.51,-0.83 1.21,0 2.39,0.14 3.55,0.41 1.16,0.28 2.2,0.68 3.11,1.21l-3.09 3.21c-0.92,-0.51 -2.56,-0.73 -3.6,-0.73 -0.72,0 -1.29,0.08 -1.73,0.23 -0.44,0.15 -0.75,0.35 -0.94,0.6 -0.19,0.25 -0.29,0.53 -0.29,0.85 0,0.41 0.19,0.73 0.56,0.97 0.38,0.24 0.87,0.44 1.49,0.59 0.62,0.15 1.3,0.31 2.04,0.47 0.74,0.16 1.49,0.36 2.23,0.6zm69.35 -8.11l4.28 0 0.05 18.72 -4.78 0 -0.05 -9.93 -5.88 10.03 -5.87 -9.76 0 9.65 -4.81 0 0 -18.72 4.28 0 6.47 10.82 6.3 -10.82zm-25.1 0l4.28 0 0.05 18.72 -4.78 0 -0.05 -9.93 -5.88 10.03 -5.87 -9.76 0 9.65 -4.81 0 0 -18.72 4.28 0 6.47 10.82 6.3 -10.82zm-2.27 35.42l2.42 4.02 -4.83 0 2.41 -4.02zm-84.66 -35.43l4.97 0 -5.97 18.72 -5.58 0 -3.53 -11.4 -3.68 11.4 -5.58 0 -5.97 -18.72 5.37 0 3.7 11.95 3.9 -11.95 4.79 0 3.72 12.06 3.86 -12.06zm21.28 0l0 4.09 -9.29 0 0 3.16 8.18 0 0 3.96 -8.18 0 0 3.42 9.63 0 0 4.09 -14.78 0 0 -18.72 14.44 0zm39.93 0l5.13 0 0 10.38c0,2.78 -0.76,4.93 -2.29,6.45 -1.53,1.52 -3.65,2.27 -6.37,2.27 -2.72,0 -4.84,-0.76 -6.37,-2.27 -1.53,-1.52 -2.29,-3.66 -2.29,-6.45l0 -10.38 5.21 0 0 10.22c0,1.61 0.31,2.76 0.93,3.45 0.62,0.7 1.48,1.04 2.56,1.04 1.09,0 1.94,-0.35 2.55,-1.04 0.61,-0.7 0.92,-1.85 0.92,-3.45l0 -10.22zm66.03 0l16.49 0 0 4.2 -5.63 0 0 14.52 -5.21 0 0 -14.52 -5.66 0 0 -4.2zm-1.97 0l0 18.72 -5.21 0 0 -18.72 5.21 0zm-23.69 24.45l0 17.81 -4.81 0 0 -17.81 4.81 0zm3.43 0l3.96 0 7.51 9.49 0 -9.49 4.72 0 0 17.81 -3.96 0 -7.51 -9.49 0 9.49 -4.72 0 0 -17.81zm-28.29 0l0 3.99 -5.2 0 0 13.82 -4.81 0 0 -13.82 -5.23 0 0 -3.99 15.24 0zm-21.75 0l4.71 0 0 17.81 -3.96 0 -7.51 -9.49 0 9.49 -4.72 0 0 -17.81 3.96 0 7.51 9.49 0 -9.49zm-25.91 0l0 9.72c0,1.53 0.29,2.62 0.86,3.28 0.58,0.66 1.36,0.99 2.37,0.99 1,0 1.79,-0.33 2.36,-0.99 0.57,-0.66 0.85,-1.76 0.85,-3.28l0 -9.72 4.74 0 0 9.87c0,2.65 -0.7,4.69 -2.11,6.13 -1.41,1.44 -3.37,2.16 -5.88,2.16 -2.51,0 -4.47,-0.72 -5.88,-2.16 -1.41,-1.44 -2.11,-3.49 -2.11,-6.13l0 -9.87 4.81 0zm-32.64 0l3.96 0 0.05 17.81 -4.42 0 -0.04 -9.45 -5.44 9.55 -5.43 -9.28 0 9.18 -4.45 0 0 -17.81 3.96 0 5.99 10.29 5.82 -10.29zm137.92 7.67c0.69,0.23 1.32,0.53 1.88,0.92 0.57,0.38 1.02,0.88 1.37,1.5 0.35,0.62 0.52,1.4 0.52,2.33 0,1.03 -0.28,1.99 -0.84,2.86 -0.56,0.87 -1.39,1.57 -2.5,2.1 -1.11,0.53 -2.51,0.79 -4.19,0.79 -1.39,0 -2.73,-0.18 -4.02,-0.55 -1.29,-0.36 -2.34,-0.84 -3.15,-1.41l2.81 -3.02c1.01,0.67 3.2,1.06 4.38,1.06 0.66,0 1.2,-0.06 1.6,-0.19 0.4,-0.13 0.7,-0.3 0.89,-0.51 0.19,-0.21 0.28,-0.46 0.28,-0.75 0,-0.41 -0.18,-0.73 -0.53,-0.97 -0.36,-0.24 -0.82,-0.43 -1.39,-0.59 -0.57,-0.15 -1.19,-0.31 -1.88,-0.46 -0.69,-0.15 -1.38,-0.35 -2.07,-0.59 -0.69,-0.24 -1.32,-0.55 -1.88,-0.93 -0.57,-0.38 -1.03,-0.88 -1.39,-1.5 -0.36,-0.62 -0.53,-1.4 -0.53,-2.35 0,-1.07 0.28,-2.04 0.84,-2.9 0.56,-0.87 1.4,-1.56 2.52,-2.09 1.12,-0.53 2.51,-0.79 4.18,-0.79 1.12,0 2.22,0.13 3.29,0.39 1.08,0.26 2.04,0.65 2.88,1.16l-2.86 3.07c-0.86,-0.48 -2.37,-0.7 -3.34,-0.7 -0.66,0 -1.2,0.07 -1.6,0.22 -0.41,0.14 -0.7,0.33 -0.88,0.57 -0.18,0.24 -0.27,0.51 -0.27,0.81 0,0.39 0.17,0.7 0.52,0.93 0.35,0.23 0.81,0.42 1.39,0.56 0.58,0.14 1.21,0.29 1.9,0.45 0.69,0.15 1.38,0.34 2.07,0.57zm-113.19 -2.46c0.48,1.12 0.72,2.35 0.72,3.69 0,1.34 -0.24,2.57 -0.72,3.7 -0.48,1.13 -1.14,2.11 -1.98,2.94 -0.84,0.83 -1.84,1.48 -2.98,1.93 -1.14,0.46 -2.4,0.69 -3.78,0.69 -1.36,0 -2.62,-0.23 -3.77,-0.69 -1.15,-0.46 -2.15,-1.11 -3,-1.95 -0.85,-0.84 -1.51,-1.82 -1.98,-2.94 -0.47,-1.12 -0.7,-2.35 -0.7,-3.69 0,-1.34 0.23,-2.57 0.7,-3.69 0.47,-1.12 1.13,-2.1 1.98,-2.94 0.85,-0.84 1.85,-1.49 3,-1.95 1.15,-0.46 2.41,-0.69 3.77,-0.69 1.38,0 2.64,0.23 3.78,0.69 1.14,0.46 2.13,1.11 2.98,1.95 0.84,0.84 1.5,1.82 1.98,2.94zm-8.74 8.78c0.65,0 1.25,-0.12 1.81,-0.36 0.56,-0.24 1.05,-0.58 1.46,-1.03 0.41,-0.45 0.74,-0.99 0.97,-1.62 0.24,-0.63 0.35,-1.32 0.35,-2.09 0,-0.78 -0.12,-1.48 -0.35,-2.1 -0.23,-0.62 -0.56,-1.15 -0.97,-1.6 -0.41,-0.45 -0.9,-0.79 -1.46,-1.03 -0.56,-0.24 -1.16,-0.36 -1.81,-0.36 -0.65,0 -1.25,0.12 -1.81,0.36 -0.56,0.24 -1.05,0.58 -1.46,1.03 -0.41,0.45 -0.74,0.98 -0.97,1.6 -0.24,0.62 -0.35,1.32 -0.35,2.1 0,0.76 0.12,1.46 0.35,2.09 0.23,0.63 0.56,1.17 0.97,1.62 0.41,0.45 0.9,0.79 1.46,1.03 0.56,0.24 1.16,0.36 1.81,0.36zm72.28 -13.99l10.72 17.81 -4.85 0 -1.58 -2.63 -4.31 -7.16 -4.29 7.16 -1.58 2.63 -4.78 0 10.67 -17.81z"/>
  <path class="fil1" d="M11.92 49.32l4.03 -3.69 2.92 -4.08 3.25 -2.16c-0.29,1.24 -0.31,1.33 -1.3,1.97l-3.23 4.88c-2.13,1.76 0.09,-0.97 -2.64,1.44 -0.32,0.29 -0.57,0.45 -0.91,0.73 -0.56,0.46 -1.62,0.58 -2.13,0.92zm-5.1 7.84l-1.16 -1.16c-3.78,-3.78 -5.67,-8.76 -5.67,-13.73 0,-4.97 1.89,-9.95 5.67,-13.73l0 0 0 0 22.87 -22.87c3.78,-3.78 8.76,-5.67 13.73,-5.67 4.97,0 9.95,1.89 13.73,5.67l22.87 22.87c3.78,3.78 5.67,8.76 5.67,13.73 -0.03,5.24 -1.98,10.02 -5.67,13.73 -2.04,2.04 -5.57,5.71 -9.64,9.64l-13.23 13.23c-3.78,3.78 -8.76,5.67 -13.73,5.67 -1.13,0 -2.27,-0.1 -3.39,-0.29 0.51,-0.42 1.38,-1.45 2.08,-2.04 0.73,-0.61 1.23,-1.31 1.96,-1.93 1.38,-1.17 7.44,-4.11 8.61,-5.58 1.31,-1.32 15.67,-15.16 15.05,-15.39 -5.46,4.35 -10.27,7.94 -11.04,8.25 -0.33,0.13 -3.59,2.93 -5.62,4.01 -2.83,1.51 -6.43,3.11 -9.41,3.81 1.04,-1.5 5.47,-3.47 7.5,-5.85 -1.2,0.57 -5.08,0.9 -6.34,1.67 -4.04,2.04 -2.92,-0.62 -6.94,1.4 -1.86,0.25 -3.92,1.78 -6.77,1.78 3.95,-3.39 5.63,-4.44 10.07,-7.55 1.11,-0.78 5.38,-7.54 6.05,-9.08 -1.35,1.06 -2.25,2.16 -3.32,3.22 -1.18,1.17 -3.8,3.58 -5.14,4.46 -1.32,0.87 -4.52,3.55 -5.85,3.55 -1.67,0 -2.87,-0.61 -3.88,-0.61 -1.4,0 -6.94,2.45 -9.44,2.66 3.62,-3.9 5.04,-3.75 10.08,-7.74 1.62,-1.29 3.47,-2.59 4.93,-4.06 0.73,-0.73 1.61,-1.51 2.23,-2.27l4.31 -4.68c0.76,-0.76 2.35,-3.07 3.36,-3.42 0.23,-0.08 0.83,-0.94 1.06,-0.94 0.29,0.31 0.23,0.17 0.54,0.65 1.21,-0.89 7.02,-10.27 7.33,-11.63l-3.71 4.1c-0.6,0.68 -1.45,1.64 -2.01,2.33 -2.17,2.69 -4.71,4.78 -7.18,7.27l-4.09 3.68c-2.03,2.06 -5.72,5.07 -8.19,6.93 -1.24,0.93 -5.08,2.46 -6.68,2.59 2.31,-3.07 1.72,-1.13 4.09,-3.96 1.92,-1.23 3.74,-2.07 5.43,-4.35 -1.91,1.29 -3.64,1.3 -5.63,2.8 -1.95,1.46 -1.86,-0.33 -3.91,1.02 -2.98,1.95 -9.17,6.78 -12.33,6.78 1.55,-1.92 7.03,-5.23 7.75,-7.18 -1.34,0.89 -5.54,3.71 -6.89,4.56 -1.52,0.96 -4.23,2.62 -5.97,2.62 1.87,-2.3 5.74,-4.68 7.26,-7.56 -1.16,0.1 -2.05,0.88 -3.39,0.88 0.73,-0.85 1.4,-1.53 1.98,-2.29zm0.75 -20.94c-0.96,1.89 -1.44,3.97 -1.44,6.05 0,2.5 0.69,4.99 2.08,7.17 1.69,-1.2 3.48,-2.13 3.9,-2.47 1.34,-1.7 3.69,-3.23 5.6,-6.93l5.85 -3.42c0.97,0.63 1.25,1.06 2.06,2.27 1.08,1.61 1.98,3.66 3.73,4.72 1.1,1.7 4,3.89 5.09,5.28 1.59,-0.61 2.76,-2.08 3.63,-2.88 0.73,-0.67 1.07,-1.13 1.7,-1.77 0.65,-0.67 1.16,-1.11 1.75,-1.71 0.7,-0.72 5.89,-6.63 6.3,-7.44 0.91,-0.58 5.41,-5.41 7.51,-6.8 0.57,0.22 0.37,0.14 0.82,0.63l1.64 1.97c0.05,0.05 12.75,11.32 13.03,11.54 1.95,2.92 5.29,5.32 6.14,5.9 0.96,-1.89 1.44,-3.97 1.44,-6.05 0,-3.41 -1.29,-6.82 -3.87,-9.4l-22.87 -22.87c-2.58,-2.58 -5.99,-3.87 -9.4,-3.87 -3.41,0 -6.82,1.29 -9.4,3.87l-22.87 22.87c-1,1 -1.82,2.15 -2.43,3.35z"/>
  <path class="fil2" d="M76.01 34.63l-14 0c3.74,3.32 8.63,7.65 8.81,7.78 1.95,2.92 5.29,5.32 6.14,5.9 0.96,-1.89 1.44,-3.97 1.44,-6.05 0,-2.68 -0.8,-5.36 -2.39,-7.63z"/>
  <path class="fil2" d="M7.88 48.89l1.13 0c1.42,-0.93 2.74,-1.64 3.1,-1.92 1.34,-1.7 3.69,-3.23 5.6,-6.93l5.85 -3.42c0.97,0.63 1.25,1.06 2.06,2.27 1.08,1.61 1.98,3.66 3.73,4.72 1.1,1.7 4,3.89 5.09,5.28 1.59,-0.61 2.76,-2.08 3.63,-2.88 0.73,-0.67 1.07,-1.13 1.7,-1.77 0.65,-0.67 1.16,-1.11 1.75,-1.71 0.7,-0.72 5.89,-6.63 6.3,-7.44 0.12,-0.08 0.31,-0.23 0.54,-0.44l-39.84 0c-0.36,0.51 -0.68,1.04 -0.95,1.58 -0.96,1.89 -1.44,3.97 -1.44,6.05 0,2.29 0.58,4.58 1.75,6.62z"/>
  <path class="fil3" d="M8.52 34.63l39.84 0c1.53,-1.37 5.15,-5.15 6.97,-6.36 0.57,0.22 0.37,0.14 0.82,0.63l1.64 1.97c0.02,0.02 1.9,1.69 4.22,3.76l14 0c-0.43,-0.62 -0.93,-1.21 -1.48,-1.76l-12.49 -12.49 -39.55 0 -12.49 12.49c-0.55,0.55 -1.04,1.14 -1.48,1.76z"/>
  <path class="fil4" d="M22.49 20.38l39.55 0 -10.38 -10.38c-2.58,-2.58 -5.99,-3.87 -9.4,-3.87 -3.41,0 -6.82,1.29 -9.4,3.87l-10.38 10.38z"/>
 </g>
</svg>
